<svg xmlns="http://www.w3.org/2000/svg" viewBox="0 0 124.28 209.6"><defs><style>.cls-1{isolation:isolate;}.cls-2{fill:#5e7a75;}.cls-3{fill:#ee7800;}.cls-4{fill:#f4a17a;}.cls-5{fill:#d041e0;}.cls-6{fill:#fabc13;}.cls-7{fill:#00acb3;}.cls-8{fill:#ffe9ee;}.cls-9{opacity:0.29;mix-blend-mode:multiply;}.cls-10{fill:#e95476;}.cls-11{opacity:0.44;mix-blend-mode:soft-light;}.cls-12{fill:#f4f4f4;}.cls-13{opacity:0.67;mix-blend-mode:overlay;}.cls-14{fill:#5d3e60;}</style></defs><g class="cls-1"><g id="Layer_2" data-name="Layer 2"><g id="OBJECTS"><path class="cls-2" d="M33.61,85.29a120.1,120.1,0,0,0-12.46-2.4,23.21,23.21,0,0,0-7.2-.17c-4.77.83-8.78,4.4-10.93,8.73A26.79,26.79,0,0,0,.78,105.61a21.28,21.28,0,0,0,2.44,8.9,19.5,19.5,0,0,0,6.53,6.43,30,30,0,0,0,8.11,3.57A58.91,58.91,0,0,0,27.6,126l69.15,6.8c5.94.58,12,1.15,17.8-.34a9.37,9.37,0,0,0,5.12-2.83,11.43,11.43,0,0,0,1.86-5.06c.93-4.74,1.86-9.59,1.21-14.38s-3.18-9.6-7.53-11.71a21.81,21.81,0,0,0-5.52-1.57c-12.9-2.5-25.89-5-39-5.13-5.44-.05-10.92.31-16.33-.32-7.15-.85-14-3.4-20.7-5.93"/><path class="cls-3" d="M34.78,2.9c-5.47,2.79-6.69,11.38-2.2,15.57a13.62,13.62,0,0,0,1.83,15A20.34,20.34,0,0,1,59.83,12.83,20.51,20.51,0,0,0,63.92,27.7c3.66,4.72,9.67,8.39,10.15,14.36.4,5-3.33,9.2-6.55,13A2.82,2.82,0,0,0,66.65,57a2.2,2.2,0,0,0,.89,1.39c2.43,2,6.36,1.46,8.63-.75s3-5.61,2.72-8.76a40,40,0,0,1-.46-4.22,19.35,19.35,0,0,1,1.47-6,72.68,72.68,0,0,0,3.4-14.4A12.12,12.12,0,0,0,82.94,18a11.5,11.5,0,0,0-3.89-4.46c-7.61-5.8-17-8.7-26.14-11.49C49.26.94,45.51-.18,41.7,0s-7.77,2-9.49,5.43"/><path class="cls-4" d="M41.73,16a13.6,13.6,0,0,0-4.86,4.39c-2.59,4.25-1.4,10-1.62,14.7C35,40.37,34.37,46,37,50.88a13.72,13.72,0,0,0,9,6.73,3.93,3.93,0,0,1,2.15.87,3,3,0,0,1,.64,1.7c.26,1.93,0,3.89.34,5.81s1.29,3.92,3.1,4.63c3.11,1.22,6.35-2.32,6.38-5.67a9.6,9.6,0,0,1,.19-3.26c.84-2.31,3.82-2.71,6.17-3.43a13.38,13.38,0,0,0,8.49-7.9c.5-1.28.83-2.71,1.82-3.67a7.92,7.92,0,0,1,2.44-1.37c3-1.33,5.91-3.38,7.24-6.39s.61-7.08-2.24-8.73-7.33.59-7,3.87c-5.12.34-10-2.86-12.74-7.22A22.09,22.09,0,0,1,60.07,19c-.47-2.68.47-5.72-1.86-6.77C53.89,10.23,45.39,13.85,41.73,16Z"/><path class="cls-4" d="M76.62,95.64C79.3,101.78,82,108,83,114.63s0,13.82-4.1,19.12c-.88,1.12-1.57,3.26-.16,3.52a1.86,1.86,0,0,0,1.4-.51,15.72,15.72,0,0,0,2.94-2.82,47.46,47.46,0,0,0,.13,6.42c.1,1.11.5,2.49,1.6,2.61a2.25,2.25,0,0,0,1.81-1c1.92-2.26,2.66-5.26,3.2-8.17a94.07,94.07,0,0,0-3.23-46.76,34.36,34.36,0,0,1-11.69,8.22"/><path class="cls-4" d="M32.68,154.21A61,61,0,0,0,32,170a146.93,146.93,0,0,0,4.56,28.81,1.67,1.67,0,0,0,.67,1.12,1.63,1.63,0,0,0,1.11,0,117.66,117.66,0,0,0,12-3.53,1.82,1.82,0,0,0,1.46-2.63,142.67,142.67,0,0,1-3.32-38.87,35.93,35.93,0,0,0-14.78-.62"/><path class="cls-4" d="M60.78,153.12a124.6,124.6,0,0,0,9.16,36.72,1.38,1.38,0,0,0,.64.81,1.25,1.25,0,0,0,.85-.06l13.68-4c-6.67-11-7.56-24.45-8.27-37.3a47.33,47.33,0,0,1-13.75,3.89"/><path class="cls-4" d="M16.08,124.43a8.8,8.8,0,0,0-.18-3.35c-.23-.87-1-1.89-1.82-1.5a1.73,1.73,0,0,0-.71,1.29c-.46,2.26-.87,4.66-.16,6.86s2.9,4.11,5.18,3.7c1.72-.31,3-1.79,4-3.23a19,19,0,0,0,3.69-8.48c.1-.88,0-2-.87-2.29a2.13,2.13,0,0,0-1.81.54,30.62,30.62,0,0,0-6,5.5"/><path class="cls-5" d="M47.25,64.64c-4.91-2.71-11.44.21-14.43,5s-3.24,10.68-3,16.29l6.11.21a1.62,1.62,0,0,1,1,.26,1.66,1.66,0,0,1,.38,1.38c-.29,9.35-.68,19.09-5.11,27.32,1.07-2,14.37,3.15,16.48,3.32a74.68,74.68,0,0,0,13.86.27c4.82-.5,17.36-2.74,15.57-9.38l-3.77-14a30.59,30.59,0,0,0,14.16-8.45q-3.66-7.74-8-15.15c-1.56-2.7-3.29-5.47-6-7.1-3-1.84-6.78-1.91-10.33-1.93a6,6,0,0,0-2.57.37c-2.09,1-2.3,3.84-3.59,5.75a5.42,5.42,0,0,1-9.52-5.06"/><path class="cls-6" d="M35.65,116.14a139.5,139.5,0,0,0-3.06,38.12q6,.28,12,.23a2.08,2.08,0,0,0,1.28-.29,2.14,2.14,0,0,0,.61-1.62q.78-10.23,1.57-20.48l10.81,0q.18,10.66,1.21,21.29a2.34,2.34,0,0,0,.81,1.88,2.25,2.25,0,0,0,1.41.17,33.87,33.87,0,0,0,12.78-4,214.22,214.22,0,0,1,1.65-30.38c.57-4.47,1.89-7.63-3.47-5.93-3.92,1.24-7.54,2.94-11.63,3.68-5.16.94-9.07-.24-14-1-3.62-.59-7.43-.3-11.12-.82"/><path class="cls-7" d="M37.4,198.67l-5.25,6.1c-.87,1-1.76,2.51-.91,3.54a92,92,0,0,0,19.93-4.49,3.37,3.37,0,0,0,2-1.32c.55-1,0-2.18-.48-3.18l-1.06-2.07a2.37,2.37,0,0,0-.61-.85,2.54,2.54,0,0,0-2.37,0,81.77,81.77,0,0,1-10.45,2.7c-.2,0-.47,0-.53-.17s.4-.11.23,0"/><path class="cls-7" d="M84.17,186.87a4.6,4.6,0,0,0-1.33.1,49.78,49.78,0,0,0-11.66,3.76l.07-.25a51.92,51.92,0,0,0-3.88,7.43c-.38.91-.71,2-.1,2.8A87.18,87.18,0,0,0,87,192.84C86.08,190.84,85.12,188.86,84.17,186.87Z"/><path class="cls-6" d="M50.23,77.8A41.62,41.62,0,0,0,47.4,88.24c-.08.61,0,1.42.55,1.61L52,86.19q-.29,4.31-.93,8.57c.57.27,1.16-.31,1.53-.82A97.41,97.41,0,0,0,59,83.76l-4.25,2.77A26.81,26.81,0,0,1,56,78.09l-6.1-.31"/><path class="cls-8" d="M101.92,104.88a5.52,5.52,0,0,0-3.06-.16,2.66,2.66,0,0,0-2,2.14c-.16,1.61,1.48,2.76,3,3.37a1.17,1.17,0,0,1,.55.37,1.19,1.19,0,0,1,.1.59L100.34,123a8.15,8.15,0,0,0-3.08.83,2.76,2.76,0,0,0-1.51,2.62,3.48,3.48,0,0,0,2.2,2.38,10.87,10.87,0,0,0,8,.5c1.32-.45,2.73-1.44,2.67-2.83a2.72,2.72,0,0,0-1.69-2.16,11.56,11.56,0,0,0-2.8-.67,1.12,1.12,0,0,1-.65-.27,1.18,1.18,0,0,1-.23-.78,108.09,108.09,0,0,1,0-10.95c1.22,0,2.45.25,3.66.14a3,3,0,0,0,2.82-2,2.74,2.74,0,0,0-1.15-2.7,8.13,8.13,0,0,0-2.84-1.19l-4.9-1.36"/><path class="cls-8" d="M20.94,94.1c-1.6.16-2.47,2.23-1.83,3.7A4.54,4.54,0,0,0,23,100.21q.15,6-.05,12.07a8.42,8.42,0,0,0-2.84.85,2.87,2.87,0,0,0-1.56,2.38,2.79,2.79,0,0,0,1.29,2.16,6.63,6.63,0,0,0,2.42.91,22.48,22.48,0,0,0,4.17.47,6.61,6.61,0,0,0,3.12-.55,2.77,2.77,0,0,0,1.6-2.56,2.87,2.87,0,0,0-2-2.24,8.26,8.26,0,0,0-3.1-.31l.08-12.51a7.7,7.7,0,0,0,3.3.36,3.05,3.05,0,0,0,2.06-.94,2.61,2.61,0,0,0-.68-3.47,7.65,7.65,0,0,0-3.67-1.27l-6-1"/><g class="cls-9"><path class="cls-10" d="M77,42.85a21.12,21.12,0,0,1,1.55-6,6.36,6.36,0,0,1,2.6-3.34c1.27-.66,3.15-.33,3.7,1A3.26,3.26,0,0,1,85,36.36a8.91,8.91,0,0,1-8.34,7"/></g><g class="cls-9"><path class="cls-10" d="M48.11,37.62a6.76,6.76,0,0,1-1.25-2,2.23,2.23,0,0,1,.35-2.22,1.37,1.37,0,0,1,2,0,3.14,3.14,0,0,1-1.38,3.83c-.21.11-.47.27-.41.5s.46-.11.23-.11"/></g><g class="cls-11"><path class="cls-12" d="M58.13,11.86a28.74,28.74,0,0,0-16.6,4.74c-2.8,1.86-5.38,4.41-6.13,7.69-.67,3,.26,6,.38,9.09.19,4.76-1.59,9.56-.6,14.21a12.6,12.6,0,0,0,13,9.6c-4.45-1.79-7.31-6.33-8.35-11s-.54-9.56,0-14.33,1.3-10.24,5.09-13.32c4.08-3.31,10.41-2.83,14.26-6.41"/></g><g class="cls-13"><path class="cls-6" d="M34,20.74A27.49,27.49,0,0,1,30,13.48a9.39,9.39,0,0,1,.74-8c1.47-2.18,4.07-3.35,6.65-3.87C43,.45,48.73,2,54.17,3.72a179,179,0,0,1,20,7.84,20.4,20.4,0,0,1,6.15,3.85A7.5,7.5,0,0,1,82.65,22c-7.31-8.76-19-12.5-30.33-14.22a28.32,28.32,0,0,0-9.45-.25,11.31,11.31,0,0,0-7.77,4.94c-1.62,2.72-1.43,6.6.91,8.73"/></g><path class="cls-14" d="M59.59,10.88c-8.36-.8-18.33,1-23,8.71-2.53,4.2-2.78,9.55-3,14.31s-.82,9.63.45,14.29C36.66,57.7,47.17,60.75,56,61c9.62.23,19.22-4.84,20-15.28.09-1.09-1.61-1.09-1.7,0C73.46,56.37,62.85,59.8,53.65,59.15a28,28,0,0,1-12.23-3.64C37.61,53.2,35.63,49,35.1,44.69c-.47-3.75.1-7.79.25-11.56.18-4.59.66-9.29,3.08-13.3,4.13-6.84,14-7.94,21.16-7.25,1.09.1,1.08-1.6,0-1.7Z"/><path class="cls-14" d="M76.6,35a4.69,4.69,0,0,1,6.57-3.11c2.35,1,2.8,3.83,2.39,6-.83,4.49-5.84,6.32-9.75,7-1.08.19-.62,1.83.45,1.64,6.07-1.11,12.25-5,10.95-12a6.21,6.21,0,0,0-5.64-4.85A6.47,6.47,0,0,0,75,34.55c-.32,1.05,1.32,1.5,1.64.45Z"/><path class="cls-14" d="M77.18,43.13c.39-3.78,1.22-8.75,5.8-9.39.64-.09.37-1.06-.26-1-5,.71-6.1,6.16-6.54,10.36-.07.65.93.64,1,0Z"/><path class="cls-14" d="M77.41,40.19a4.53,4.53,0,0,1,3.83-1.41c.64.06.63-.94,0-1a5.46,5.46,0,0,0-4.54,1.71c-.44.46.26,1.17.71.7Z"/><path class="cls-14" d="M60,11.93c-1.12,4.76,1.16,10.41,3.24,14.65,2.57,5.22,7,7.17,12.43,8.18.63.12.9-.84.27-1-5-.93-8.84-2.51-11.49-7.09-2.23-3.84-4.52-10.1-3.48-14.51.15-.63-.82-.89-1-.27Z"/><path class="cls-14" d="M35.89,21.45c-6.07-3.47-8.11-12.69-2-17.17,4.71-3.47,11.7-2.41,17-1.21C59,4.93,66.65,8.4,74.3,11.73c3.54,1.54,6.82,3,8.31,6.85,1.42,3.66.51,8-.19,11.68-.12.63.84.9,1,.26.77-4.06,1.44-8.17.19-12.21-1.1-3.58-4.23-5.44-7.45-6.88C67,7.36,57.76,3.21,47.85,1.43c-5.58-1-12.7-.74-16.59,4-4.47,5.4-1.45,13.72,4.12,16.91.57.32,1.07-.55.51-.86Z"/><path class="cls-14" d="M31.32,19.17a18.15,18.15,0,0,0,2.84,16c.38.51,1.25,0,.86-.5a17.19,17.19,0,0,1-2.73-15.23.5.5,0,0,0-1-.27Z"/><path class="cls-14" d="M66.44,57.85c3.52,1.85,7.43.91,10.29-1.69,3.15-2.85,3.6-7.72,3-11.65-.11-.64-1.07-.37-1,.26A12.61,12.61,0,0,1,76.5,54.94,7.84,7.84,0,0,1,67,57c-.57-.3-1.08.56-.51.86Z"/><path class="cls-14" d="M63.19,7c.18,10,3,22.52,14.33,25,.63.13.9-.83.27-1-10.93-2.37-13.43-14.5-13.6-24,0-.64-1-.64-1,0Z"/><path class="cls-14" d="M34.12,20.67c-.27-13.39,19.37-13.61,28.54-13,.64,0,.64-1,0-1-9.72-.61-29.83-.07-29.54,14,0,.64,1,.65,1,0Z"/><path class="cls-14" d="M68.22,9c1.71,7.63,6.63,16.72,14.48,19.42.61.21.87-.75.27-1C75.46,24.91,70.81,16,69.18,8.76c-.14-.63-1.1-.36-1,.27Z"/><path class="cls-14" d="M74.8,12.14a28.24,28.24,0,0,0,8.45,10.12c.52.39,1-.48.51-.86a27.06,27.06,0,0,1-8.09-9.77c-.29-.57-1.15-.07-.87.51Z"/><path class="cls-14" d="M30.63,14.74C34.1,4.07,46.94,4,56.1,5c.64.07.63-.93,0-1-9.66-1-22.81-.68-26.44,10.47-.2.61.77.88,1,.26Z"/><path class="cls-14" d="M69.44,56.55c5.74.48,7.49-5.77,7.84-10.28,0-.65-1-.64-1,0-.31,4-1.67,9.72-6.84,9.28-.64,0-.64,1,0,1Z"/><path class="cls-14" d="M40.72,32.24v4.31a.85.85,0,0,0,1.7,0V32.24a.85.85,0,0,0-1.7,0Z"/><path class="cls-14" d="M58.86,32.92v4.31a.85.85,0,0,0,1.7,0V32.92a.85.85,0,0,0-1.7,0Z"/><path class="cls-14" d="M38.91,27.22a4.65,4.65,0,0,1,3.8-2.95c1.08-.16.62-1.8-.45-1.64a6.3,6.3,0,0,0-5,4.14c-.37,1,1.27,1.47,1.64.45Z"/><path class="cls-14" d="M57.9,24.92A6.93,6.93,0,0,1,63,26.7c.81.73,2-.47,1.2-1.2a8.66,8.66,0,0,0-6.28-2.28c-1.09.05-1.1,1.75,0,1.7Z"/><path class="cls-14" d="M49.79,32.43a2.66,2.66,0,0,0-4.15.78c-1,1.75.06,3.76,1.32,5a.85.85,0,0,0,1.2-1.2A3.32,3.32,0,0,1,47,34.65c0-.78.89-1.68,1.62-1s2-.46,1.2-1.2Z"/><path class="cls-14" d="M48.15,41.47a6.11,6.11,0,0,0,6.15-3.6c.43-1-1-1.86-1.47-.86a4.5,4.5,0,0,1-4.68,2.76c-1.09-.11-1.08,1.59,0,1.7Z"/><path class="cls-14" d="M48.09,59.68c.32,4.26.22,13.23,7,12,5.2-.92,5.1-8.49,4.88-12.49,0-.64-1-.64-1,0,.19,3.39.5,9.76-3.33,11.34-2.9,1.19-5.15-1.39-5.85-3.87-.65-2.25-.52-4.69-.7-7-.05-.64-1.05-.65-1,0Z"/><path class="cls-14" d="M60,63.92c3.22-.74,6.53-1.44,9.83-.86,3.75.67,6.32,3.6,8.27,6.64,3.61,5.64,5.15,12.28,9.45,17.53.7.85,1.89-.36,1.2-1.2C83.67,79.84,82.27,71.56,77,65.47c-4.59-5.36-11.32-4.61-17.51-3.19-1.07.25-.61,1.89.45,1.64Z"/><path class="cls-14" d="M47.91,62.28c-3.09-.06-7.24-1.29-10.17.12a11.51,11.51,0,0,0-5.47,5.46c-2.58,5.17-2,11.31-3.7,16.74-.34,1.05,1.31,1.5,1.64.46,1.44-4.5,1.4-9.31,2.63-13.86A11.3,11.3,0,0,1,37,64.75c3-2.18,7.46-.84,10.92-.77a.85.85,0,0,0,0-1.7Z"/><path class="cls-14" d="M79.4,109c-.32-1.81-.73-3.61-1.17-5.39A77.28,77.28,0,0,0,75.53,95a6.62,6.62,0,0,1-1.17.18,1.68,1.68,0,0,1-.59,0,84.29,84.29,0,0,1,4.15,15.15c.41,2.34-3.47,3.85-5.29,4.78A30.42,30.42,0,0,1,65,117.58c-6.62,1.32-13.33.71-19.93-.26a66.54,66.54,0,0,1-8.65-1.73,6.32,6.32,0,0,1-2.54-1.12c-.29-.28.46-3.28.61-4.09.26-1.45.61-2.9.95-4.34a68.77,68.77,0,0,0,2-16.35c0-6-.07-12-.46-18-.07-1.09-1.77-1.1-1.7,0,.43,6.64.45,13.3.46,20,0,7-2.07,13.3-3.19,20.09-.49,3-.5,4.13,2.36,5.2A50,50,0,0,0,45.09,119c7.52,1.11,15.06,1.53,22.53-.3a31.27,31.27,0,0,0,6.55-2.5,27.24,27.24,0,0,0,3.34-2.06c.68-.47,2.11-1.22,2.34-2S79.56,109.85,79.4,109Z"/><path class="cls-14" d="M64,75.59,68.46,87.5l2.39,6.41c.26.7.7,1.59,1.52,1.77,2.75.61,5.91-1,8.33-2.16a25.87,25.87,0,0,0,8-6.29c.72-.82-.47-2-1.2-1.2a26.52,26.52,0,0,1-6.33,5.28c-1,.61-7.83,4.29-8.71,2.15-2.47-6-4.56-12.23-6.83-18.32-.38-1-2-.58-1.64.45Z"/><path class="cls-14" d="M81.66,130.58l-6-.64a3.1,3.1,0,0,1,.16,1.63l6,.63a2,2,0,0,1,.17-.32c.27-.4.53-.79.78-1.19Z"/><path class="cls-14" d="M27.14,124.75c-.86-.11-1.72-.18-2.59-.24a3,3,0,0,1-.18.41c-.18.29-.34.58-.54.86a4,4,0,0,1-.3.39c2.38.21,4.77.41,7.16.73l2.94.37q0-.87.06-1.74Z"/><path class="cls-14" d="M36.39,89.41l-3.93-.54c-5.09-.69-10.33-1.81-15.48-1.8-8.5,0-12.86,9.25-13.67,16.55-.87,7.83,2.26,16.06,9.16,20a4.08,4.08,0,0,1,.3-1.77,16.51,16.51,0,0,1-4.47-4.19C5,113.28,4.38,107.29,5.23,102,6,97,9,91,14.13,89.15c2.65-.93,6-.28,8.72.1,3.71.53,7.42,1,11.13,1.53l2.71.38A10.33,10.33,0,0,1,36.39,89.41Z"/><path class="cls-14" d="M116.91,102.48c-4.41-3.84-10.6-5.11-16.2-6-4-.62-8.09-.92-12.16-1.15.3.59.58,1.18.82,1.78a101.31,101.31,0,0,1,16.1,2,24.78,24.78,0,0,1,10.24,4.57c3.23,2.59,4.72,6.42,5.45,10.38a22.05,22.05,0,0,1-2,13.49,8.87,8.87,0,0,1-8.82,5.44c-4.6,0-9.27-.71-13.86-1.07l-5.25-.45a6,6,0,0,1-.17,1.09,2.58,2.58,0,0,1-.19.53c3.19.3,6.38.59,9.57.84,5.17.4,12,2.25,16.65-1,4.45-3.17,5.94-9.95,6-15C123.27,112.15,121.27,106.29,116.91,102.48Z"/><path class="cls-14" d="M36.4,85Q31,84.23,25.62,83.42c-6.34-1-13.3-1.88-18.2,3A27.19,27.19,0,0,0,.05,103.28,18.88,18.88,0,0,0,6.8,119.09c.85.69,2.06-.51,1.21-1.2C2.46,113.41.81,106.26,2.3,99.48a27.25,27.25,0,0,1,4.39-9.42,12,12,0,0,1,10.53-5.69c6.43-.1,13,1.31,19.39,2.4A17.64,17.64,0,0,1,36.4,85Z"/><path class="cls-14" d="M124,111.16c-.77-4.79-2.88-9.63-6.92-12.55a20.16,20.16,0,0,0-7.45-3.11c-4-1-8.07-1.79-12.14-2.51-3.56-.63-7.13-1.17-10.7-1.66a14,14,0,0,1,1.31,1.91c7.08,1,14.11,2.24,21.08,3.9,6.28,1.5,10.52,5,12.48,11.27,2.12,6.8.2,13.31-2.48,19.62-.43,1,1,1.87,1.47.86C123.1,123.15,125,117.48,124,111.16Z"/><path class="cls-14" d="M11.88,123.79c-1.09,3,1.43,6.46,4.31,7.36,4,1.26,7.13-2,8.76-5.29.95-1.93,2.29-6.61-.44-7.77-2.9-1.24-7.12,4.46-8.56,6.2l1.45.6c.17-1.65.21-5.4-1.95-6-2.59-.71-3,2.53-3.89,4-.59.93.88,1.78,1.46.86a7.76,7.76,0,0,0,.85-2c1.06-1.34,1.64-1.29,1.73.16a7.56,7.56,0,0,1,.1,2.92.85.85,0,0,0,1.45.6,45.29,45.29,0,0,1,3.23-3.56,13.6,13.6,0,0,1,2.36-1.77c2.42-1.49,1.28,3.27,1.2,3.58a8.92,8.92,0,0,1-4.83,5.86c-2.83,1.18-6.61-2.61-5.59-5.36.38-1-1.27-1.47-1.64-.45Z"/><path class="cls-14" d="M46.22,63.44c-.3,5.31,3,10.49,8.5,11.16,6.5.8,7.49-7.64,7.37-12.08,0-.64-1-.65-1,0,.12,4.48-.4,11.09-6.37,11.08-5,0-7.74-5.91-7.5-10.16,0-.64-1-.64-1,0Z"/><path class="cls-14" d="M70.56,91.94a38.26,38.26,0,0,0,14.83-9c.46-.45-.25-1.15-.71-.71A37,37,0,0,1,70.29,91c-.61.2-.35,1.17.27,1Z"/><path class="cls-14" d="M69.31,85.74a27.89,27.89,0,0,0,13.41-7.88c.44-.47-.27-1.18-.71-.71a26.84,26.84,0,0,1-13,7.62.5.5,0,0,0,.26,1Z"/><path class="cls-14" d="M33.43,111.47c14.66,3.67,30.64,4.31,44.05-3.66A.5.5,0,0,0,77,107c-13.19,7.83-28.88,7.16-43.28,3.55a.5.5,0,0,0-.27,1Z"/><path class="cls-14" d="M49,78.83,45.78,89.31a.5.5,0,0,0,.61.62,13.91,13.91,0,0,0,5.15-2.83l-.85-.36a44.1,44.1,0,0,1-.6,8.19l1,.13.07-.9c0-.64-1-.64-1,0l-.07.9c0,.56.89.69,1,.13a45.92,45.92,0,0,0,.63-8.45.51.51,0,0,0-.86-.35A12.29,12.29,0,0,1,46.13,89l.61.62,3.19-10.49c.19-.62-.77-.88-1-.26Z"/><path class="cls-14" d="M49.26,78.83,52,78.37c.5-.09,3.88-1.16,3.39.54s-1.54,3.82-1.54,5.57c0,2.67,4.19-.85,4.68-1.19l-.73-.3c.35,1.33-1.15,3.11-1.77,4.16l-2.5,4.28A18.15,18.15,0,0,1,51,95c-.5.5-.85.6-1.06,1.24a.49.49,0,0,0,.23.56l.24.16a.48.48,0,0,0,.6-.08l.16-.16c.44-.47-.26-1.18-.71-.71a.78.78,0,0,0,1.24-.31,6.88,6.88,0,0,0,1.08-1.21c1-1.35,1.79-2.81,2.64-4.25,1.16-2,4-5,3.36-7.49a.49.49,0,0,0-.73-.3l-2,1.39c-1.57,1.09-.92-.29-.62-1.31.36-1.25,1.63-3.65,1.27-5-.2-.71-.55-.76-1.18-.79-2-.08-4.46.76-6.46,1.11-.63.11-.36,1.07.27,1Z"/><path class="cls-14" d="M85.16,89.82C92.85,103,91.48,118.54,90,133.08c-.11,1.1,1.59,1.08,1.7,0,1.47-14.86,2.74-30.69-5.11-44.12a.85.85,0,0,0-1.47.86Z"/><path class="cls-14" d="M76.64,95c2.18,6.89,4.38,13.83,5.21,21A57.53,57.53,0,0,1,82,126.32c-.22,3.51-2,6.62-3.56,9.7a.85.85,0,0,0,.73,1.27,5.29,5.29,0,0,0,5.24-2.9c.52-1-1-1.83-1.47-.86a3.65,3.65,0,0,1-3.77,2.06l.74,1.28a37,37,0,0,0,3.54-8.62c.78-3.59.48-7.62.19-11.25-.61-7.67-3-15.12-5.36-22.41-.33-1-2-.6-1.64.45Z"/><path class="cls-14" d="M82.68,134.09c-1,2.73-3.33,11.36,2.59,10.29,4.88-.87,6.09-8.19,6.52-12.16.12-1.09-1.59-1.08-1.7,0-.35,3.18-1.14,7-3.25,9.48a2.8,2.8,0,0,1-2.6,1C82.48,142.44,83,140,83.1,139a21.58,21.58,0,0,1,1.22-4.45c.39-1-1.26-1.47-1.64-.45Z"/><path class="cls-14" d="M34.18,116.91a249.86,249.86,0,0,0,2,83.32c.21,1.08,1.84.62,1.64-.45a247.4,247.4,0,0,1-2-82.42c.16-1.07-1.48-1.53-1.64-.45Z"/><path class="cls-14" d="M46.62,134c-.29,10.67-.08,21.32.43,32,.46,9.61.71,19.32,3.43,28.62a.85.85,0,0,0,1.64-.45c-2.77-9.45-2.94-19.31-3.41-29.07-.5-10.36-.67-20.72-.39-31.09a.85.85,0,0,0-1.7,0Z"/><path class="cls-14" d="M47.61,134.52a57.12,57.12,0,0,0,10.94,0c1.08-.11,1.09-1.81,0-1.7a57.12,57.12,0,0,1-10.94,0c-1.1-.11-1.09,1.59,0,1.7Z"/><path class="cls-14" d="M75.32,114.82a220.58,220.58,0,0,0,.74,40.79c1.37,12,3.53,24.09,8.7,35.16.46,1,1.93.13,1.47-.86-5.3-11.34-7.3-23.74-8.67-36.08a214.49,214.49,0,0,1-.54-39c.08-1.1-1.62-1.09-1.7,0Z"/><path class="cls-14" d="M58.36,133.71a178.09,178.09,0,0,0,11,58c.38,1,2,.58,1.64-.45a176.47,176.47,0,0,1-10.94-57.54.85.85,0,0,0-1.7,0Z"/><path class="cls-14" d="M35.73,199.71a51.55,51.55,0,0,0-3.92,4.92c-.71,1-2.31,2.4-2.26,3.71a.88.88,0,0,0,.62.81c2.6,1.09,6.93-.08,9.54-.82,3.47-1,6.88-2.12,10.38-3,1.81-.44,4-1.22,3.79-3.39a37.91,37.91,0,0,0-1.36-5.71L51,189.84c-.26-1.06-1.9-.61-1.64.45l2.22,9.14.45,1.83c.38,1.55,0,1.65-1.25,2.12a19.6,19.6,0,0,1-2.71.7c-2.65.57-5.24,1.52-7.83,2.32s-6.91,2.23-9.58,1.12l.63.82c0-.61,1.65-2.33,2-2.85a46.09,46.09,0,0,1,3.65-4.58c.74-.8-.46-2-1.2-1.2Z"/><path class="cls-14" d="M37.43,201.06c2.44-.49,4.88-1,7.3-1.62,2.09-.51,4.3-.91,6.12-2.12.91-.61.06-2.08-.86-1.47-1.69,1.12-3.77,1.47-5.71,2-2.42.61-4.86,1.13-7.3,1.62-1.08.21-.62,1.85.45,1.64Z"/><path class="cls-14" d="M32.44,153.68c4.74.67,9.65.22,14.42.11a.85.85,0,0,0,0-1.7c-4.6.1-9.4.6-14-.05-1.07-.15-1.54,1.49-.45,1.64Z"/><path class="cls-14" d="M60.56,154.33c5.41-.42,10.8-1,15.68-3.54,1-.51.11-2-.86-1.47-4.6,2.43-9.72,2.91-14.82,3.31-1.09.08-1.1,1.78,0,1.7Z"/><path class="cls-14" d="M69.92,190.79c-.69,1.25-6.63,9.1-3.11,10,2.77.68,6.92-1.32,9.47-2.25,2.33-.85,4.47-2.11,6.83-2.89,1.45-.48,3.08-1.09,3.74-2.58s-.72-3.12-1.34-4.36a49.44,49.44,0,0,1-3.59-10.06.85.85,0,0,0-1.64.45,46.67,46.67,0,0,0,4.27,11.42c1.21,2.18.21,2.76-1.89,3.49a35,35,0,0,0-4,1.65,55.3,55.3,0,0,1-8.78,3.15c-.44.12-.89.22-1.33.32-1.2.25-1.31.14-.72-1.1,1-2.18,2.35-4.22,3.51-6.34.52-1-.94-1.82-1.47-.86Z"/><path class="cls-14" d="M70.81,191.87a52.18,52.18,0,0,0,12.87-3.48c1-.41.56-2.06-.45-1.64a52.3,52.3,0,0,1-12.87,3.48c-1.08.15-.62,1.79.45,1.64Z"/><path class="cls-14" d="M32.81,148.09a49.76,49.76,0,0,0,14.24,1.2c.64,0,.65-1,0-1a48.62,48.62,0,0,1-14-1.17c-.63-.14-.9.82-.27,1Z"/><path class="cls-14" d="M60.12,149.25a38.76,38.76,0,0,0,14.94-2.19c.6-.21.34-1.17-.27-1a38.32,38.32,0,0,1-14.67,2.15c-.64,0-.64,1,0,1Z"/><path class="cls-14" d="M49.51,119.22q-.39,7.07-.22,14.12a.5.5,0,0,0,1,0q-.16-7.07.22-14.12c0-.64-1-.64-1,0Z"/><path class="cls-14" d="M54.92,119.42a113.4,113.4,0,0,0-.23,13.92c0,.64,1,.64,1,0a113.4,113.4,0,0,1,.23-13.92c.06-.65-1-.64-1,0Z"/><path class="cls-14" d="M34,132.32a19.5,19.5,0,0,0,5.71-14.76c0-.64-1-.65-1,0a18.48,18.48,0,0,1-5.42,14.06.5.5,0,0,0,.71.7Z"/><path class="cls-14" d="M70.92,117a26.77,26.77,0,0,0,.45,9.48c.52,2.73,1,5.51,2.93,7.61.44.47,1.14-.24.7-.71-1.82-2-2.16-4.64-2.67-7.16a24.8,24.8,0,0,1-.45-9c.1-.63-.86-.9-1-.26Z"/><path class="cls-14" d="M108.87,112c1.8-1,2.81-4.17.63-5.41-1.72-1-3.83-1.14-5.74-1.52-1.5-.3-4.23-1.42-5.76-.68-2.42,1.17-2.11,4.45.06,5.84a15.72,15.72,0,0,0,10.69,1.82.5.5,0,0,0-.26-1c-3.18.83-9.95-.1-11.15-3.61l2.89-2.09,1.63.33,3.27.65c1,.19,1.92.37,2.86.62,2.37.62,2.08,3.24.38,4.15C107.8,111.44,108.3,112.3,108.87,112Z"/><path class="cls-14" d="M100.15,110.92a96,96,0,0,0-.4,13c0,.65,1,.65,1,0a96,96,0,0,1,.4-13c.07-.64-.93-.63-1,0Z"/><path class="cls-14" d="M102.78,111.85q.15,6-.1,11.91c0,.64,1,.64,1,0q.25-6,.1-11.91c0-.64-1-.65-1,0Z"/><path class="cls-14" d="M108.25,128.6c1.73-2.8-1.08-4.83-3.69-5.07-1.67-.16-3.48-.07-5.15-.08-1.27,0-3,0-4,.92-2.19,1.84-.93,3.94,1.29,4.82a26.22,26.22,0,0,0,6.12,1.12,6.22,6.22,0,0,0,5.37-1.61c.47-.45-.24-1.16-.7-.71-2.25,2.18-5.43,1.23-8.17.76-.63-.11-1.24-.21-1.86-.37-1.79-.45-2.81-2.75-.69-3.6a11.08,11.08,0,0,1,4.41-.29c1.5.07,8.69-.4,6.23,3.6C107.05,128.64,107.92,129.14,108.25,128.6Z"/><path class="cls-14" d="M31.62,101.19c1.8-1,2.81-4.16.63-5.41-1.72-1-3.82-1.14-5.73-1.52-1.5-.3-4.24-1.42-5.77-.68-2.42,1.17-2.11,4.45.07,5.84a15.69,15.69,0,0,0,10.68,1.82.5.5,0,0,0-.26-1c-3.18.83-9.95-.1-11.15-3.61L23,94.57l1.64.33,3.27.65c.95.19,1.91.37,2.85.62,2.37.62,2.08,3.24.38,4.15C30.55,100.63,31.06,101.49,31.62,101.19Z"/><path class="cls-14" d="M22.91,100.11a94.38,94.38,0,0,0-.4,13,.5.5,0,0,0,1,0,94.38,94.38,0,0,1,.4-13c.06-.64-.94-.63-1,0Z"/><path class="cls-14" d="M25.53,101q.16,6-.1,11.91c0,.64,1,.64,1,0q.26-6,.1-11.91c0-.64-1-.65-1,0Z"/><path class="cls-14" d="M31,117.79c1.72-2.8-1.09-4.83-3.7-5.07-1.67-.16-3.47-.07-5.15-.08-1.27,0-3,.06-4,.92-2.19,1.85-.93,3.94,1.29,4.82a25.81,25.81,0,0,0,6.12,1.12,6.25,6.25,0,0,0,5.38-1.61c.46-.45-.25-1.16-.71-.71-2.25,2.18-5.43,1.23-8.17.76-.63-.11-1.24-.21-1.86-.37-1.78-.45-2.8-2.75-.69-3.6a11.08,11.08,0,0,1,4.41-.29c1.5.07,8.7-.4,6.23,3.6C29.8,117.83,30.67,118.34,31,117.79Z"/><path class="cls-14" d="M49.12,204.7c-.58-2.34-1.25-5.4,1.06-7,.53-.37,0-1.24-.5-.87-2.74,2-2.24,5.31-1.52,8.18.15.62,1.12.36,1-.27Z"/><path class="cls-14" d="M83.22,194.1a6.6,6.6,0,0,1-.21-5.69c.25-.59-.61-1.1-.86-.5a7.72,7.72,0,0,0,.2,6.7c.29.57,1.16.06.87-.51Z"/><path class="cls-14" d="M69.32,195.11a3,3,0,0,1,1.62,1.15c.37.52,1.24,0,.86-.5a4.13,4.13,0,0,0-2.21-1.62c-.62-.19-.88.78-.27,1Z"/><path class="cls-14" d="M69.75,193a10.77,10.77,0,0,1,3,1.41c.53.37,1-.5.5-.86A11.59,11.59,0,0,0,70,192a.5.5,0,0,0-.27,1Z"/><path class="cls-14" d="M33.21,205.25a2.54,2.54,0,0,1,1.8,1.19c.34.55,1.2.05.87-.5a3.51,3.51,0,0,0-2.41-1.65c-.63-.11-.9.85-.26,1Z"/><path class="cls-14" d="M34.59,203a3.57,3.57,0,0,1,2.77,1.09c.44.47,1.15-.24.7-.71A4.52,4.52,0,0,0,34.59,202c-.64,0-.65,1,0,1Z"/></g></g></g></svg>