<svg xmlns="http://www.w3.org/2000/svg" viewBox="0 0 133.63 293.05"><defs><style>.cls-1{isolation:isolate;}.cls-2{fill:#ee7800;}.cls-3{fill:#f4a17a;}.cls-4{fill:#5e7a75;}.cls-5{fill:#00acb3;}.cls-6{fill:#fabc13;}.cls-7{opacity:0.29;mix-blend-mode:multiply;}.cls-8{fill:#e95476;}.cls-9{fill:#ffe9ee;}.cls-10{opacity:0.67;mix-blend-mode:overlay;}.cls-11{opacity:0.44;mix-blend-mode:soft-light;}.cls-12{fill:#f4f4f4;}.cls-13{fill:#5d3e60;}</style></defs><g class="cls-1"><g id="Layer_2" data-name="Layer 2"><g id="OBJECTS"><path class="cls-2" d="M86.9,11.7A110.92,110.92,0,0,0,70.29,4c-2.4-.88-5.21-2.33-7.74-2.52-3.1-.24-6.19-.58-9.29-.78A25.39,25.39,0,0,0,42.79,2.18c-2.7.93-4,3.44-4.57,6.16-.44,2.27.5,3.5,1.27,5.44.9,2.3-.28,2.87-1,5.14a9.11,9.11,0,0,0,2.82,10A23.34,23.34,0,0,1,70.19,12.5a41.86,41.86,0,0,0,9.75,29.2c2.73,3.21,6.83,6.21,10.83,4.87,4.5-1.51,5.6-7.26,6-12,.46-6,.75-12.69-2.94-17.48A22.36,22.36,0,0,0,86.9,11.7Z"/><path class="cls-3" d="M69.21,12.17a21,21,0,0,0-17,3.66c-8.51,6.41-10.78,18-12.42,28.52a34.55,34.55,0,0,0-.61,9.12A17.66,17.66,0,0,0,52.08,68.26c2.75.7,6.07,1,7.53,3.39s.1,5.81,1.1,8.53c1.34,3.62,6.77,4.35,9.68,1.82s3.38-7.06,2.06-10.68A31.89,31.89,0,0,0,89.53,56.67c3.94.93,6.53-1,10-2.23,2.25-.8,4.13-.52,5.12-3.12,1.61-4.19-1.87-11-6.85-10.34a12.21,12.21,0,0,0-5.61,2.72,4.35,4.35,0,0,1-2,1,4,4,0,0,1-2-.49c-2.8-1.24-5.65-2.57-7.78-4.78s-3.31-5-4.48-7.76c-2.66-6.22-5.33-12.54-6.34-19.23"/><path class="cls-3" d="M17.48,160.84A123.52,123.52,0,0,1,3.26,169.1,8.81,8.81,0,0,0,.43,171a6.17,6.17,0,0,0,6.21,1.61l-2.37,5.79a5.52,5.52,0,0,0-.56,2.13,1.91,1.91,0,0,0,1.06,1.8c1.63-.17,2.8-1.58,3.78-2.89a5.39,5.39,0,0,0,1.79,5.13l3.45-5.73c.84.55.94,1.69,1.21,2.65s1.14,2,2.06,1.64a2,2,0,0,0,1-1.19l5.16-11.4a2.2,2.2,0,0,0-.84-3.28l-6.77-5.43"/><path class="cls-3" d="M118.35,268.16a48,48,0,0,0,.84,7.94c.14.74.39,1.6,1.1,1.86a2.25,2.25,0,0,0,1.26,0c1.66-.37,3.31-.8,5-1.27a3.9,3.9,0,0,0,2.1-1.13c.71-.91.5-2.22.26-3.35l-1.07-5a23.17,23.17,0,0,0-7.47.53"/><path class="cls-3" d="M34.07,274q-.69,4.68-.92,9.42a3.24,3.24,0,0,0,.75,2.73,3.24,3.24,0,0,0,2.2.46l9.93-.32a3.16,3.16,0,0,0,2-.54,3.12,3.12,0,0,0,.75-2.32,53,53,0,0,0-.24-6.9c-2.54.76-5.1-.8-7.59-1.68a15.61,15.61,0,0,0-6.74-.84"/><path class="cls-4" d="M42,160c.26,5.42-1.17,10.7-1.35,16.11q-.33,9.72-1,19.4-.66,9.42-1.68,18.8c-1.46,13.52-2.59,27.07-3.16,40.66-.14,3.35-.25,6.71-.32,10.06,0,2-1,6.53.1,8.35,2.34,3.81,12.71,3.11,16.35,2.49,1.85-24.48,5-48.86,9.11-73.06.82-4.83,1.68-9.65,2.54-14.47.52-2.91,1.19-6.07,3.49-7.93,2.84-2.29,7-1.67,10.52-.93-.15,2.51.82,4.94,1.78,7.27q7.14,17.52,14.29,35c6.75,16.56,13.53,33.15,22.1,48.85a48.86,48.86,0,0,0,12.27-6c-4.94-18.29-9.58-36.67-14.21-55L98.85,154.43a101.47,101.47,0,0,1-56.95,5.72"/><path class="cls-5" d="M55.91,76.26a19.55,19.55,0,0,0-16.08,3.91,14.63,14.63,0,0,0-5.31,9.33c-.84,5.35-.14,10.81-.23,16.22C34,124.47,24.21,141.53,17.3,159a3.86,3.86,0,0,0-.4,2,3.63,3.63,0,0,0,.89,1.67,32.43,32.43,0,0,0,5.7,5.59,1.41,1.41,0,0,0,.82.38,1.48,1.48,0,0,0,1-.59L35,157.69a16.7,16.7,0,0,0,2.65-3.35,16.38,16.38,0,0,0,1.11-2.87l2.13-6.71-.12,9.53a7,7,0,0,0,.55,3.47A5.8,5.8,0,0,0,43.94,160c5.13,2.62,11.2,2.48,16.93,1.93,8-.77,16-1.36,23.95-3.2a48.42,48.42,0,0,0,9.41-3.7c3.3-1.54,5.78-1.66,6.06-5.64.45-6.34-1.41-13.17-2.44-19.41-.8-4.82-3.36-11.64-2.69-16.36.23-1.6,4.68,3.79,4.83,4.11a38.65,38.65,0,0,1,2.77,9.8c1.72,9.09,2.27,21.1-3.54,28.79,3.26,3.25,8.62,5.18,13.06,6.08,5.58-14.26,9.76-30.06,5.47-44.77-1.56-5.36-4.19-10.34-6.85-15.25a140.39,140.39,0,0,0-10.2-15.46c-2.07-2.86-3.94-6.1-7.14-7.84-1.1-.59-19.33-3.6-19.46-3.2-1.2,4-5.51,6-9.37,7.52a4.51,4.51,0,0,1-2.2.47C61,83.68,60.09,82,59.68,80.52s-.69-3.18-1.89-4.18-3.62-.35-3.43,1.19"/><path class="cls-3" d="M100.6,156.52a65.23,65.23,0,0,0-7.07,5.2,3.07,3.07,0,0,0-1.07,1.36,3.12,3.12,0,0,0,.69,2.41l4.93,7.91a3.74,3.74,0,0,0,1.9,1.84c1.11.32,2.22-.42,3.13-1.12,2.32-1.78,4.7-3.65,6.06-6.24a20.22,20.22,0,0,0,1.7-6.48,52.45,52.45,0,0,0-10.3-3.89"/><path class="cls-6" d="M33.63,284.87a47.31,47.31,0,0,0-8.07,6.87,132.86,132.86,0,0,1,23.26.07q.12-3.35-.08-6.68a117.59,117.59,0,0,1-14.9-.05"/><path class="cls-6" d="M130.21,275.44a30.17,30.17,0,0,1-9.94,1.94,1.88,1.88,0,0,0-.75.12,1.75,1.75,0,0,0-.58.57,80.76,80.76,0,0,0-5.4,8.42c1.75.41,3.56-.27,5.22-.95l13.57-5.48c-.88-1.52-1.8-3-2.75-4.51"/><g class="cls-7"><path class="cls-8" d="M99.13,44.38a18.33,18.33,0,0,0-7.87,9.41,1.11,1.11,0,0,0-.09.64c.09.39.56.56,1,.62a7.36,7.36,0,0,0,7-3.13,8.75,8.75,0,0,0,.94-7.69"/></g><g class="cls-7"><path class="cls-8" d="M58.45,40.36a3.8,3.8,0,0,0-2.06-1.73,2.17,2.17,0,0,0-2.43.83c-.69,1.16.17,2.61,1,3.68.26.33.61.7,1,.62a1.18,1.18,0,0,0,.62-.55l2.51-3.72"/></g><path class="cls-6" d="M48.47,77.61c-1,4.09-.4,8.38.2,12.55.49,3.4,1,6.79,1.5,10.19,1.32,8.73,2.8,17.76,7.66,25.15,1.14,1.73,2.62,3.46,4.66,3.89,2.26.48,4.56-.82,6.17-2.48a23.76,23.76,0,0,0,4.57-7.77c5.26-13,6.77-27.25,8.23-41.23a1.4,1.4,0,0,0-.09-.84,1.38,1.38,0,0,0-.73-.51,13.35,13.35,0,0,0-6.23-.78,5,5,0,0,0-2.14.66c-2,1.35-1.7,4.59-3.51,6.18s-4.89.61-6.85-1-3.67-4.08-2.78-6.42a96.33,96.33,0,0,0-10.52,2.21"/><path class="cls-9" d="M58,77.05a7,7,0,0,0-4.1,5.51,17.18,17.18,0,0,0,.66,7.11c.09.38.26.82.64.89a1.06,1.06,0,0,0,.85-.41L58.33,88c1.66,1,1.24,3.4.7,5.24A93.38,93.38,0,0,0,57,102.45a26.07,26.07,0,0,0-.66,6c.21,4.44,2.61,8.44,5,12.23a4.09,4.09,0,0,0,1.56,1.68c1.69.79,3.42-.91,4.51-2.42a16.5,16.5,0,0,0,3.08-5.78c.57-2.52-.07-5.13-.7-7.64-.68-2.66-1.35-5.32-2.27-7.91a45.16,45.16,0,0,0-3.19-7,13.72,13.72,0,0,1,2.53-3l1.46,3.16a1.84,1.84,0,0,0,.53.77c.72.51,1.66-.19,2.18-.89,3.29-4.5,2.75-10.71,1.33-16.09l-2.36,6a3.64,3.64,0,0,1-.85,1.45,3.06,3.06,0,0,1-1.82.61A9.27,9.27,0,0,1,58,77.22"/><path class="cls-2" d="M57.2,3.49a.5.5,0,0,0,0-1,.5.5,0,0,0,0,1Z"/><g class="cls-10"><path class="cls-6" d="M45.74,1.07a11.27,11.27,0,0,0-7.49,6.62c-.8,2-.75,4.76,1.13,5.82a6.49,6.49,0,0,1,1.25.67,2.2,2.2,0,0,1,.36,2.4,15.34,15.34,0,0,1-1.29,2.21,7.59,7.59,0,0,0,.76,8.49,1.38,1.38,0,0,0,1,.62,1.3,1.3,0,0,0,1-.85c1-2.23-.3-5,.63-7.24.57-1.39,1.91-2.4,2.24-3.87.45-2-1.14-4-.57-6,.44-1.46,1.94-2.32,3.38-2.85a17.2,17.2,0,0,1,8.44-.9,31.43,31.43,0,0,1,5.1,1.35L69,9.92c1.81.59,3.63,1.18,5.41,1.85A66.4,66.4,0,0,1,87.49,18.4a20.37,20.37,0,0,1,5.86,5.22c1,1.47,1.74,3.21,3.1,4.38a3.46,3.46,0,0,0,.39-3,20,20,0,0,0-7.61-12.38,33.62,33.62,0,0,0-7.12-3.56c-2.66-1.07-5.31-2.14-8-3.19A77.61,77.61,0,0,0,66.44,3.2a83.46,83.46,0,0,0-9.93-1.85C52.17.72,47.54.13,43.58,2"/></g><g class="cls-11"><path class="cls-12" d="M68.63,11.81a30.37,30.37,0,0,0-9.92.7,19.64,19.64,0,0,0-7.55,3.43c-4,3.12-6,8.06-7.45,12.89a94.49,94.49,0,0,0-4,22.63A14.76,14.76,0,0,0,40,56.29a12.59,12.59,0,0,0,3,4.91A27.16,27.16,0,0,0,64.8,69.8a13.1,13.1,0,0,1-6.3-1.21c-6.79-3-11-10.33-11.91-17.7S47.47,36.05,49.94,29a25.43,25.43,0,0,1,2.59-5.66c3.5-5.3,10-7.62,16-9.61"/></g><path class="cls-13" d="M71,11.52C60.09,9.93,48.93,12.8,43.58,23.23c-2.54,4.94-3.35,10.62-4.2,16.05s-1.5,10.63-.45,15.94c2.25,11.35,14.26,15.86,24.53,16.69s20.72-3.51,24.78-13.6c.41-1-1.23-1.46-1.64-.45-3.82,9.5-13.55,13-23.14,12.35-10.13-.65-20.87-5.28-23-16.15-.93-4.69-.14-9.67.59-14.33a66.7,66.7,0,0,1,3.21-13.82c4.23-11,15.52-14.32,26.35-12.75,1.07.16,1.53-1.48.45-1.64Z"/><path class="cls-13" d="M90.47,47.65c2-2.73,4.21-5.59,7.82-6.06s5.58,3.34,5.58,6.39c0,3.29-2.89,5.8-5.52,7.25a17.29,17.29,0,0,1-10.74,1.52c-1.07-.16-1.53,1.48-.45,1.64,7.41,1.11,19.15-2.18,18.36-11.69-.25-3-2.5-6.31-5.67-6.72-4.95-.63-8.2,3.21-10.85,6.81-.65.89.83,1.74,1.47.86Z"/><path class="cls-13" d="M91.47,54.7a12.17,12.17,0,0,1,8.06-9.84c.61-.21.35-1.17-.26-1a13.13,13.13,0,0,0-8.76,10.54c-.09.63.87.9,1,.26Z"/><path class="cls-13" d="M91.91,53.32a6.57,6.57,0,0,0,4.71-7.25c-.09-.64-1.05-.36-1,.27a5.56,5.56,0,0,1-4,6,.5.5,0,0,0,.26,1Z"/><path class="cls-13" d="M45.84,37.61l-.57,4.67c-.14,1.09,1.56,1.08,1.7,0l.57-4.67c.14-1.08-1.56-1.07-1.7,0Z"/><path class="cls-13" d="M70.55,40a40.23,40.23,0,0,0-.61,4.52c-.09,1.09,1.61,1.08,1.7,0a37.18,37.18,0,0,1,.55-4.07c.21-1.07-1.43-1.53-1.64-.45Z"/><path class="cls-13" d="M69,32.21a7,7,0,0,1,7.21,3.43.85.85,0,0,0,1.47-.86,8.78,8.78,0,0,0-9.14-4.2c-1.07.18-.62,1.81.46,1.63Z"/><path class="cls-13" d="M59,39.43a3.28,3.28,0,0,0-5.12-.76c-2,1.83-.46,4.36,1,5.84a.85.85,0,0,0,1.2-1.2c-.84-.83-1.92-1.87-1.26-3.14a1.53,1.53,0,0,1,2.67.12A.85.85,0,0,0,59,39.43Z"/><path class="cls-13" d="M41.8,34.11a6.36,6.36,0,0,1,7.27-3.69c1.07.25,1.52-1.39.45-1.64a8,8,0,0,0-9.19,4.48c-.43,1,1,1.85,1.47.85Z"/><path class="cls-13" d="M95.83,41.77c2.27-7.76,4-17.08-.79-24.26-2.47-3.7-6.72-6.43-10.51-8.59A64.42,64.42,0,0,0,71,3.38,81.32,81.32,0,0,0,55.42.28C51.3-.1,46.36-.41,42.59,1.61,36.91,4.67,35,12.76,41.25,16.18c1,.52,1.82-.95.86-1.47C39,13,38.18,10.15,39.69,7s4.6-4.73,8-5.07c8.66-.89,17.72,1.3,25.9,4C81,8.42,90.12,12.55,94.31,19.52c3.84,6.41,1.84,15.12-.12,21.79a.85.85,0,0,0,1.64.46Z"/><path class="cls-13" d="M41.36,15.15a8.24,8.24,0,0,0,.9,14,.85.85,0,0,0,.85-1.47,6.52,6.52,0,0,1-.89-11.07c.86-.66,0-2.13-.86-1.47Z"/><path class="cls-13" d="M69.76,12.74C69.19,19.87,72.39,27,75.9,33A33.23,33.23,0,0,0,89.54,46.31c1,.49,1.84-1,.86-1.46-5.65-2.8-9.8-7.39-13-12.73-3.44-5.69-6.45-12.61-5.91-19.38.09-1.09-1.61-1.08-1.7,0Z"/><path class="cls-13" d="M75.44,6.48a33.51,33.51,0,0,0,17.37,36c.57.3,1.07-.57.5-.87A32.51,32.51,0,0,1,76.4,6.75c.12-.63-.85-.9-1-.27Z"/><path class="cls-13" d="M81.93,8.46A41.74,41.74,0,0,0,95.12,36.28c.47.44,1.18-.27.7-.71A40.75,40.75,0,0,1,82.93,8.46c-.05-.64-1.05-.64-1,0Z"/><path class="cls-13" d="M89.37,13.33c.41,6.23,3.72,10.61,7.24,15.52.38.52,1.24,0,.87-.51-3.39-4.72-6.72-9-7.11-15,0-.64-1-.64-1,0Z"/><path class="cls-13" d="M39.27,13.06C40.52,6.2,49.22,4.77,55,4.77c7,0,14,2.51,20.53,4.82.61.21.87-.75.27-1C68.17,6,60.38,3.37,52.24,3.85c-5.53.33-12.8,2.72-13.93,9-.12.63.85.9,1,.26Z"/><path class="cls-13" d="M40.53,17.84c3.21-4.38,10.56-5.47,15.56-6.45,6.25-1.21,12.83-1.14,18.73,1.47.58.25,1.09-.61.5-.87-6-2.63-12.3-2.74-18.65-1.71A65.24,65.24,0,0,0,46,13a12.52,12.52,0,0,0-6.36,4.29c-.38.52.48,1,.86.51Z"/><path class="cls-13" d="M40.17,25.61c1.41-3.54,4.81-5.38,8.15-6.78.59-.24.33-1.21-.27-1-3.71,1.55-7.28,3.56-8.84,7.47-.24.6.72.86,1,.27Z"/><path class="cls-13" d="M53.13,48.13A9.36,9.36,0,0,0,65,45c.64-.9-.84-1.75-1.46-.86A7.63,7.63,0,0,1,54,46.67c-1-.46-1.85,1-.86,1.46Z"/><path class="cls-13" d="M58.76,71.59c-.14,2.94-.67,5.89.2,8.77.78,2.59,3.23,4,5.64,4.71,7.08,2.2,8.44-8.08,7.89-12.9-.13-1.08-1.83-1.09-1.7,0A19.27,19.27,0,0,1,70,79.78c-.39,1.37-.85,3.16-2.34,3.76-1.28.52-3-.19-4.2-.73-4.44-2-3.16-7.32-3-11.22,0-1.1-1.65-1.09-1.7,0Z"/><path class="cls-13" d="M58.49,75.52c-8-.12-16.3.25-21.52,7.15-2.25,3-2.69,6.88-2.89,10.48-.24,4.29-.08,8.56-.52,12.85-1.92,18.93-7.49,37.4-17.85,53.46-.6.92.88,1.77,1.47.86,9.23-14.31,14.65-30.47,17.19-47.24a110.27,110.27,0,0,0,1.27-11.88c.16-4.19-.13-8.38.64-12.52C38.25,78,49.7,77.09,58.49,77.22a.85.85,0,0,0,0-1.7Z"/><path class="cls-13" d="M71.89,77.28c4.76-.15,9.59-.39,14.32.44a20.62,20.62,0,0,1,10.84,6.16,55.73,55.73,0,0,1,7.28,9.85,121.14,121.14,0,0,1,6.85,12.17c8.37,17.21,9.08,37.15.55,54.47-.48,1,1,1.84,1.47.86,8.87-18,8-38.26-.56-56.19a117.81,117.81,0,0,0-7.31-12.9,54.22,54.22,0,0,0-8.11-10.47C90.17,75,81,75.29,71.89,75.58c-1.1,0-1.1,1.74,0,1.7Z"/><path class="cls-13" d="M51.25,76.76A83.81,83.81,0,0,0,53.92,103a81.12,81.12,0,0,0,4.51,12.51c.9,2,2.62,7.6,5.59,7.53,3.43-.08,4.89-3.85,6.1-6.49a89.27,89.27,0,0,0,4.67-12.75,90.56,90.56,0,0,0,3.34-27.64c0-.64-1-.65-1,0a91.93,91.93,0,0,1-2.2,23,90.67,90.67,0,0,1-3.33,11.17c-1.3,3.57-2.81,8.91-6,11.27-3.44,2.54-7.22-8.7-8-10.55a81.36,81.36,0,0,1-3.39-10.9,79.86,79.86,0,0,1-2-23.42c0-.65-1-.64-1,0Z"/><path class="cls-13" d="M59.15,75.89c-6.91,1-7.34,11.41-3.9,15.81a.86.86,0,0,0,1.34-.18,10.65,10.65,0,0,1,8.21-5.71c1.08-.15.62-1.79-.45-1.64a12.18,12.18,0,0,0-9.23,6.5l1.34-.18c-2.76-3.51-2.37-12.18,3.14-13,1.08-.15.62-1.79-.45-1.64Z"/><path class="cls-13" d="M63.33,85.29a26.34,26.34,0,0,1,5.51,8c.92,1.84,2.73-.56,3.26-1.28,3.27-4.4,3.49-10.5,1.4-15.41-.42-1-1.89-.14-1.46.85a14.42,14.42,0,0,1-1,13.1,11.12,11.12,0,0,1-1.17,1.58.83.83,0,0,0,0-.77,29,29,0,0,0-1.53-2.85,21.91,21.91,0,0,0-3.78-4.48c-.8-.74-2,.46-1.2,1.21Z"/><path class="cls-13" d="M58.45,86.93a4.78,4.78,0,0,0,3.13,5.57c2.33.83,4.81-.93,5.6-3,.39-1-1.25-1.47-1.63-.45a2.85,2.85,0,0,1-5.46-1.62c.23-1.07-1.41-1.53-1.64-.46Z"/><path class="cls-13" d="M47.61,77.37a118.91,118.91,0,0,0,.93,19.23,90.7,90.7,0,0,0,3.75,16C54,118,58.46,131.8,66.78,128.08c5.55-2.48,7.91-10,9.71-15.29s2.59-11.15,3.86-16.73a89.54,89.54,0,0,0,2.22-19.3.5.5,0,0,0-1,0A90.56,90.56,0,0,1,79.79,93.9c-1,5.12-2,10.3-3.27,15.35-1.47,5.75-3.85,13.36-8.73,17.11-3.54,2.72-7.41.24-9.65-2.86-2.88-4-4.15-8.92-5.66-13.52-3.42-10.42-4.19-21.7-3.87-32.61,0-.65-1-.64-1,0Z"/><path class="cls-13" d="M48.54,82.06a12.38,12.38,0,0,1,2.72-.13c.65,0,.64-1,0-1a13,13,0,0,0-3,.17c-.63.1-.36,1.07.27,1Z"/><path class="cls-13" d="M48.37,87.7l3-.63c.63-.14.36-1.1-.27-1l-3,.63c-.63.13-.37,1.1.26,1Z"/><path class="cls-13" d="M48.83,93.84l2.87-.69c.63-.15.36-1.12-.26-1l-2.87.7c-.63.15-.36,1.11.26,1Z"/><path class="cls-13" d="M49.53,98.94a15.71,15.71,0,0,1,3.15-.89c.63-.11.36-1.08-.27-1a17,17,0,0,0-3.14.89c-.6.23-.34,1.2.26,1Z"/><path class="cls-13" d="M50.4,104.41a23.82,23.82,0,0,0,3.31-1.11c.59-.24.33-1.21-.26-1a23.91,23.91,0,0,1-3.32,1.1.5.5,0,0,0,.27,1Z"/><path class="cls-13" d="M52,109.1l3.39-1.54c.59-.26.08-1.12-.5-.86l-3.39,1.53c-.59.27-.08,1.13.5.87Z"/><path class="cls-13" d="M53.52,113.9l3.19-1.16c.6-.22.35-1.19-.26-1l-3.2,1.16c-.6.22-.34,1.18.27,1Z"/><path class="cls-13" d="M55.25,119.66A23.87,23.87,0,0,0,59,117.81c.55-.33.05-1.2-.5-.86A24.21,24.21,0,0,1,55,118.7c-.59.23-.33,1.2.27,1Z"/><path class="cls-13" d="M58.91,124.81l2.63-3.5c.39-.52-.48-1-.86-.5l-2.63,3.5c-.39.52.48,1,.86.5Z"/><path class="cls-13" d="M64.22,122.66c.17,1.73.42,3.44.74,5.14.13.64,1.09.37,1-.26-.31-1.62-.55-3.24-.71-4.88-.06-.64-1.06-.64-1,0Z"/><path class="cls-13" d="M67.33,121.06A19.67,19.67,0,0,1,70,124.21c.36.53,1.22,0,.86-.51A21,21,0,0,0,68,120.35c-.47-.44-1.18.27-.71.71Z"/><path class="cls-13" d="M69.75,117.13a20.71,20.71,0,0,1,3.46,1.81c.54.35,1-.51.5-.86a20.61,20.61,0,0,0-3.7-1.92c-.6-.24-.85.73-.26,1Z"/><path class="cls-13" d="M71.6,112.42a12.31,12.31,0,0,1,3.71,1.43.5.5,0,0,0,.51-.86,12.77,12.77,0,0,0-3.95-1.53c-.63-.13-.9.83-.27,1Z"/><path class="cls-13" d="M73.6,107.1a8.34,8.34,0,0,1,3.29.88c.58.29,1.08-.57.51-.86a9.52,9.52,0,0,0-3.8-1c-.64,0-.64,1,0,1Z"/><path class="cls-13" d="M75.61,102a8.21,8.21,0,0,1,2.73.43c.61.2.87-.77.26-1a9.2,9.2,0,0,0-3-.46.5.5,0,0,0,0,1Z"/><path class="cls-13" d="M76.61,95.69a13.49,13.49,0,0,1,2.87.69c.61.22.86-.75.26-1a14.1,14.1,0,0,0-3.13-.73c-.64-.08-.64.92,0,1Z"/><path class="cls-13" d="M77.47,89.22a6.47,6.47,0,0,1,3,.5c.59.24.85-.72.27-1a7.1,7.1,0,0,0-3.25-.53c-.64,0-.65,1,0,1Z"/><path class="cls-13" d="M77.9,82.22a26.71,26.71,0,0,1,3.58.06c.65,0,.64-1,0-1a26.71,26.71,0,0,0-3.58-.06c-.64,0-.65,1,0,1Z"/><path class="cls-13" d="M59.15,91.11c-1.56,5.57-2.33,11.3-3.56,16.94-.23,1.07,1.41,1.52,1.64.45,1.23-5.64,2-11.37,3.56-16.94a.85.85,0,0,0-1.64-.45Z"/><path class="cls-13" d="M63.89,92.43a97.71,97.71,0,0,1,6.61,19.86c.23,1.07,1.87.61,1.64-.45a99.78,99.78,0,0,0-6.78-20.27c-.46-1-1.93-.13-1.47.86Z"/><path class="cls-13" d="M40.75,93.12c-.43,12.22-1.18,24.48-1.2,36.7,0,5.83.24,11.65-.06,17.48-.15,2.78-.65,5.51-.88,8.28a4.22,4.22,0,0,0,2.32,3.87c3.79,2.4,9.57,2.67,13.92,2.88,2.74.14,5.48,0,8.22.07,3.1.11,6.18.35,9.28.2,5.62-.28,11.36-2,16.7-3.63,4.41-1.38,9.06-2.94,12.11-6.59.7-.84-.5-2-1.2-1.2-3.08,3.67-7.83,5-12.26,6.42a71.48,71.48,0,0,1-15.35,3.3c-4.89.38-9.9-.26-14.81-.22-5.16,0-11-.36-15.75-2.7-2.49-1.24-1-5.56-.82-7.75.26-2.59.34-5.19.38-7.78.08-5.52-.18-11-.06-16.55.25-10.93.77-21.86,1.16-32.78,0-1.1-1.66-1.09-1.7,0Z"/><path class="cls-13" d="M91.27,95q4.41,28.75,9.41,57.42c.18,1.07,1.82.62,1.64-.46q-5-28.65-9.41-57.41c-.17-1.08-1.81-.62-1.64.45Z"/><path class="cls-13" d="M93.73,111.42a45.74,45.74,0,0,1,6.08,42.34c-.38,1,1.27,1.47,1.64.45a47.29,47.29,0,0,0-6.25-43.64c-.64-.88-2.12,0-1.47.85Z"/><path class="cls-13" d="M26.35,169.81c6.8-7.31,11.53-16.28,15-25.58.39-1-1.25-1.47-1.64-.45-3.38,9-8,17.74-14.58,24.82-.75.81.45,2,1.2,1.21Z"/><path class="cls-13" d="M15.61,160.6a20.94,20.94,0,0,0,8.88,8.7c1,.5,1.83-1,.86-1.47a19.36,19.36,0,0,1-8.27-8.08c-.52-1-2-.11-1.47.85Z"/><path class="cls-13" d="M99,153.81c.16,2.44,2.88,3.57,4.71,4.74a22.16,22.16,0,0,0,8.89,3.53c1.08.14,1.54-1.49.46-1.64a19,19,0,0,1-6.25-2.05c-1.36-.7-6-2.83-6.11-4.58-.07-1.09-1.77-1.09-1.7,0Z"/><path class="cls-13" d="M41.05,158.45,32.19,272.08c-.09,1.1,1.61,1.09,1.7,0l8.86-113.63c.08-1.09-1.62-1.08-1.7,0Z"/><path class="cls-13" d="M52.45,275.51Q57.6,227.18,64.06,179c.15-1.08-1.55-1.07-1.7,0q-6.45,48.18-11.61,96.51c-.12,1.09,1.58,1.07,1.7,0Z"/><path class="cls-13" d="M57.83,179c6.16,1.71,12.75,1,19,.54,1.09-.09,1.1-1.79,0-1.7-6.11.47-12.57,1.19-18.56-.48a.85.85,0,0,0-.46,1.64Z"/><path class="cls-13" d="M76.2,178.44a696.69,696.69,0,0,0,37.17,91.05c.48,1,1.95.12,1.47-.86a692.37,692.37,0,0,1-37-90.64c-.34-1-2-.6-1.64.45Z"/><path class="cls-13" d="M129.24,264.93q-12.68-46.21-25.36-92.44a2.83,2.83,0,0,1-.78.5,1.3,1.3,0,0,1-.82.09q12.66,46.15,25.33,92.31A.85.85,0,0,0,129.24,264.93Z"/><path class="cls-13" d="M99.49,159l.58-.45q-.66-2.37-1.3-4.74a.85.85,0,0,0-1.64.45l1.43,5.23Z"/><path class="cls-13" d="M33.38,274.84,32.61,286c-.08,1.09,1.62,1.08,1.7,0l.77-11.12c.07-1.09-1.63-1.08-1.7,0Z"/><path class="cls-13" d="M116.58,269.17a48.67,48.67,0,0,0,2.51,8.68c.39,1,2,.57,1.64-.46a48.32,48.32,0,0,1-2.51-8.67c-.21-1.07-1.85-.62-1.64.45Z"/><path class="cls-13" d="M113.2,288.87q10-3.35,19.78-7.4c1-.41.56-2.06-.46-1.64-6.5,2.72-13.09,5.17-19.77,7.41-1,.34-.59,2,.45,1.63Z"/><path class="cls-13" d="M126.45,266l5.48,14.44c.39,1,2,.57,1.64-.46l-5.48-14.43c-.38-1-2-.58-1.64.45Z"/><path class="cls-13" d="M64.09,162.13c.33,5.55-.74,11.91,2,17,.31.57,1.17.06.87-.51-2.62-4.9-1.53-11.16-1.85-16.5,0-.65-1-.65-1,0Z"/><path class="cls-13" d="M69.71,162.63q1,7.63,1.39,15.34c0,.64,1,.64,1,0q-.42-7.69-1.39-15.34c-.08-.63-1.08-.64-1,0Z"/><path class="cls-13" d="M45.29,161a23.27,23.27,0,0,1-4.92,19.56c-.41.49.3,1.2.71.71a24.36,24.36,0,0,0,5.17-20.54c-.12-.63-1.08-.36-1,.27Z"/><path class="cls-13" d="M92.09,157.5a20.94,20.94,0,0,0,10.78,19.15c.57.31,1.07-.55.51-.86A19.91,19.91,0,0,1,93.09,157.5a.5.5,0,0,0-1,0Z"/><path class="cls-13" d="M113.07,267A23.8,23.8,0,0,0,127,261.55c.5-.4-.22-1.11-.71-.7A22.68,22.68,0,0,1,113.07,266c-.64,0-.65,1,0,1Z"/><path class="cls-13" d="M33.35,269.31a63.5,63.5,0,0,0,18,2.37.5.5,0,0,0,0-1,63.16,63.16,0,0,1-17.72-2.33.5.5,0,0,0-.26,1Z"/><path class="cls-13" d="M114.45,269.89a25.78,25.78,0,0,0,14.34-4,.85.85,0,0,0-.86-1.47,24.13,24.13,0,0,1-13.48,3.76c-1.1-.06-1.09,1.64,0,1.7Z"/><path class="cls-13" d="M119.4,276.92a39.51,39.51,0,0,0-7.11,10.34c-.47,1,1,1.85,1.47.86a38,38,0,0,1,6.84-10c.75-.8-.45-2-1.2-1.2Z"/><path class="cls-13" d="M32.53,285.5q-4.3,2.56-8.54,5.27c-.92.59-.07,2.06.86,1.47q4.23-2.7,8.54-5.27a.85.85,0,0,0-.86-1.47Z"/><path class="cls-13" d="M24.61,292.91l24.23.14a.85.85,0,0,0,0-1.7l-24.23-.14a.85.85,0,0,0,0,1.7Z"/><path class="cls-13" d="M49.8,292.1l-.08-16.37a.85.85,0,0,0-1.7,0l.08,16.37a.85.85,0,0,0,1.7,0Z"/><path class="cls-13" d="M32.33,273c2,2.47,5.82,2.76,8.77,3.2,3.52.52,7.32.84,10.79-.11a.85.85,0,0,0-.45-1.64c-3,.82-6.17.52-9.21.2-2.71-.3-6.85-.6-8.7-2.85-.69-.85-1.89.36-1.2,1.2Z"/><path class="cls-13" d="M33.42,286.69a41.58,41.58,0,0,0,15-.57c.63-.14.36-1.11-.27-1a40,40,0,0,1-14.46.58c-.63-.09-.9.87-.27,1Z"/><path class="cls-13" d="M120.13,278.11c3.21.06,7.51-.54,10.21-2.35.53-.36,0-1.23-.5-.87-2.53,1.7-6.74,2.27-9.71,2.22a.5.5,0,0,0,0,1Z"/><path class="cls-13" d="M59.09,179c-3.59,32.26-7.2,64.52-11.7,96.67-.09.63.88.91,1,.27,4.51-32.24,8.13-64.59,11.73-96.94.07-.64-.93-.63-1,0Z"/><path class="cls-13" d="M100.9,155.67a49.8,49.8,0,0,1-8.34,6.77c-.92.59-.06,2.06.86,1.46a51.07,51.07,0,0,0,8.68-7,.85.85,0,0,0-1.2-1.2Z"/><path class="cls-13" d="M101.28,176.05a15.8,15.8,0,0,0,9.8-15.23c0-1.09-1.74-1.1-1.7,0a14.07,14.07,0,0,1-8.55,13.59c-1,.42-.56,2.06.45,1.64Z"/><path class="cls-13" d="M101.21,151.6a31.59,31.59,0,0,0,12.88,5.15c.63.11.9-.86.27-1a31.07,31.07,0,0,1-12.65-5c-.53-.37-1,.5-.5.86Z"/><path class="cls-13" d="M17.63,157.21A25.32,25.32,0,0,0,28,165.78c.58.27,1.09-.59.5-.86a24.49,24.49,0,0,1-10-8.21c-.37-.53-1.24,0-.87.5Z"/><path class="cls-13" d="M15.59,161.49A46.05,46.05,0,0,1,8.09,166a39.93,39.93,0,0,1-4.69,1.83,8.22,8.22,0,0,0-3,1.24c-1,.85.13,2.52.89,3A8.13,8.13,0,0,0,8,173a.85.85,0,0,0-.45-1.64,7.15,7.15,0,0,1-3.44.13c-.93-.19-3-1.22-1.08-1.75a36.56,36.56,0,0,0,4.33-1.55,44.63,44.63,0,0,0,9.1-5.22c.87-.65,0-2.12-.85-1.47Z"/><path class="cls-13" d="M6.84,172.25a12.44,12.44,0,0,0-2.14,3.89c-.42,1.26-.85,3.39-.28,4.64,1.5,3.26,5.16-.61,6-2.36.48-1-1-1.84-1.47-.86-.56,1.16-3.09,4.23-3,1.28A9.1,9.1,0,0,1,8,173.46c.68-.85-.51-2.06-1.2-1.21Z"/><path class="cls-13" d="M8.88,178c-.14,1.56-.4,7.75,2.37,7.37,1.24-.18,1.8-1.41,2.34-2.39.95-1.77,1.82-3.58,2.63-5.42.44-1-1-1.86-1.47-.86-.89,2-1.85,4-2.89,5.9,0,0-.62,1.22-.74.91a10.22,10.22,0,0,1-.39-1.54,13.21,13.21,0,0,1-.15-4c.1-1.1-1.6-1.09-1.7,0Z"/><path class="cls-13" d="M14.41,176.57c0,2.31.9,8.36,4.46,6.71,1.79-.84,2.44-3.52,2.88-5.21.74-2.87.83-6.44,2.7-8.86.66-.86-.53-2.07-1.2-1.21-2.22,2.87-2.41,6.78-3.29,10.18-.37,1.46-2,5.43-3.15,2.32a11.71,11.71,0,0,1-.7-3.93.85.85,0,0,0-1.7,0Z"/></g></g></g></svg>