<svg xmlns="http://www.w3.org/2000/svg" viewBox="0 0 120.31 280.83"><defs><style>.cls-1{isolation:isolate;}.cls-2{fill:#00aa8d;}.cls-3{fill:#fabc13;}.cls-4{fill:#f4a17a;}.cls-5{fill:#f4f4f4;}.cls-6{opacity:0.29;mix-blend-mode:multiply;}.cls-7{fill:#e95476;}.cls-8{fill:#00acb3;}.cls-9{opacity:0.44;mix-blend-mode:soft-light;}.cls-10{fill:#5d3e60;}</style></defs><g class="cls-1"><g id="Layer_2" data-name="Layer 2"><g id="OBJECTS"><path class="cls-2" d="M45.21,149.35l-3.16,32.47c-1.33,13.61-2.65,27.39-.73,40.93s7.44,27.05,17.76,36a6.71,6.71,0,0,0,3.25,1.83,2.59,2.59,0,0,0,3-1.71,3.85,3.85,0,0,0-.32-2,142.66,142.66,0,0,1-3.7-79.13,9.76,9.76,0,0,1,2.07-4.64c2.65-2.76,8.53-3,9.95.79,1.82,4.92.83,12.49,1.46,17.76C76,202,79.32,211.4,82.51,221.27c4.2,13,10.45,24.69,17.78,36.1l5.84-4a2.57,2.57,0,0,0,1.34-3.42c-3.35-15.19-7.33-30.83-8.42-46.58-.57-8.22.28-16.32.06-24.48A52,52,0,0,1,101,162.85c1.71-5.89-1.12-7.63-3.94-12.74a2.93,2.93,0,0,0-.82-1.05,3,3,0,0,0-2.41-.06A88.27,88.27,0,0,1,50,149"/><path class="cls-3" d="M115.77,105.45c-2.24-6.2-6.79-11.8-11.5-16.22-3.65-3.43-6.08-7.93-9.22-11.82-5.93-7.31-15.84-12.56-24.74-9.5a6.31,6.31,0,0,0-3.39,2.31c-.77,1.2-.81,2.71-1.32,4-1,2.53-3.61,4.12-6.29,4.6a24,24,0,0,1-8.09-.4l-.94-2c-3.39.32-6.13,3.12-7.46,6.26s-1.56,6.61-1.91,10A114.73,114.73,0,0,1,34.8,119.5,24,24,0,0,1,31.62,126c-1.75,2.32-4.19,4-6.47,5.8a65.93,65.93,0,0,0-9,8.63,33,33,0,0,0,3.91,6.3,5.9,5.9,0,0,0,2.52,2.11c1.43.5,3-.06,4.38-.69,8.86-4,14.38-11.44,22.08-16.83-.32.22-1.22,9.26-1.53,10.4-.77,2.86-3.08,6.83-.31,8.41,1,.59,4.1.59,5.36.91,2.65.66,5.3,1.29,8,1.75a92.66,92.66,0,0,0,16.29,1.38c5.59,0,8.83-1.6,13.58-3.91,3.39-1.65,7-2.28,9.37-5a10.08,10.08,0,0,0,1.4,10.2,1.85,1.85,0,0,0,1.14.76,2,2,0,0,0,1.27-.56,40.81,40.81,0,0,0,13.57-20.91,56.11,56.11,0,0,0,2.07-16.3C119.12,113.63,117.41,110,115.77,105.45Zm-12.1,32a1.24,1.24,0,0,1-.63,1c-.06.66-.13,1.33-.24,2-.27,1.57-2.65.9-2.39-.65a30.92,30.92,0,0,0,.29-5.18,1.17,1.17,0,0,1,.19-.66c-.21-2.5-.46-5-.89-7.47a1,1,0,0,1-.42-.7,96.71,96.71,0,0,0-4.17-16.17c-.51-1.51,1.88-2.16,2.39-.66.41,1.21.8,2.42,1.18,3.64a1.06,1.06,0,0,1,.69.57A30.88,30.88,0,0,1,103.31,127a1.33,1.33,0,0,1,.2.58A53,53,0,0,1,103.67,137.43Z"/><path class="cls-4" d="M56.65,2.93a80.43,80.43,0,0,1-9.31-1.1C45.56,1.43,44,.64,42.15.6,37.11.49,31,2.5,26.57,4.9c-3.72,2-7.78,6-9.39,10S15.92,23,15.9,27.17A73.18,73.18,0,0,1,14.56,40.7c-.59,3-1.37,6-1.11,9.08.56,6.63,6,12,12.18,14.5s13,2.64,19.63,2.8a4.61,4.61,0,0,1,2.44.51c2.19,1.39,1.75,5.78,3.41,7.89A9.42,9.42,0,0,0,60,79.1c2.47-.46,4.93-2.4,4.9-4.91,0-2.24-1.93-4-2.78-6a2.8,2.8,0,0,1-.27-1.2,3.53,3.53,0,0,1,.63-1.68l4.6-8a2.31,2.31,0,0,1,2.41-1.51A82,82,0,0,0,79,54.56a12.75,12.75,0,0,0,6.2-2.45,10.8,10.8,0,0,0,3-5.85c.9-3.87.4-8.74-3.1-10.63-4.52-2.44-9.89,1.95-15,1.45-4.31-.42-7.47-4.2-9.63-7.95A28.46,28.46,0,0,1,56.6,18.62,15.18,15.18,0,0,1,59,7.88c.63-.86,1.41-1.78,1.24-2.83C60,3.56,58.15,3.08,56.65,2.93Z"/><path class="cls-5" d="M23.22,7.31c-3.7.07-7.06,2.55-9,5.72a22.55,22.55,0,0,0-2.7,10.65A26,26,0,0,0,13,34.37c.35.88.91,1.84,1.85,2a39.4,39.4,0,0,0,.59-10.52,35.5,35.5,0,0,1,.72-10.5c.91-3.4,3-6.66,6.15-8.19"/><path class="cls-5" d="M62.61,4.81c-6.27,5.76-5,13.05-3.42,21,1,4.67,2.59,7.93,6.77,10.37a11.46,11.46,0,0,0,5.9,1.8,6.36,6.36,0,0,0,5.32-2.77,9.36,9.36,0,0,0,1-4.68A47,47,0,0,0,76.52,17c-1-3.47-2.39-6.93-5-9.47s-6.45-4-9.87-2.83"/><g class="cls-6"><path class="cls-7" d="M72.68,49.94a23.58,23.58,0,0,1,5.45-8.83c1.67-1.57,4.36-2.75,6.14-1.32s1.2,4.32-.14,6.15a10.84,10.84,0,0,1-10.27,4.23"/></g><g class="cls-6"><path class="cls-7" d="M35.64,34.33c-1-1.2-2.16-2.51-3.7-2.46a3.28,3.28,0,0,0-2.86,2.88A7.14,7.14,0,0,0,30,39a2.43,2.43,0,0,0,1.34,1.38c1,.28,1.88-.67,2.41-1.56A17.61,17.61,0,0,0,36,32.86"/></g><path class="cls-4" d="M15.79,141.33a54.56,54.56,0,0,0-6.56,4c-2.71,2-5.31,4.25-6.71,7.28a19.64,19.64,0,0,0-1.37,8.74c0,1,.23,2.28,1.19,2.65s2-.48,2.5-1.4A8.59,8.59,0,0,1,6.41,160a1.49,1.49,0,0,1,.84-.37c1.39-.06,1.51,2.35,2.83,2.82,1,.34,1.94-.65,2.15-1.65s0-2.05.13-3.06c.36-2.49,2.78-4.08,5-5.18s4.79-2.22,5.82-4.51a20.29,20.29,0,0,1-6.76-9.26"/><path class="cls-4" d="M58.77,260.87l2.45,9.42a14.48,14.48,0,0,1,7.07-.35,1.72,1.72,0,0,0,1.12,0c.74-.39.42-1.52,0-2.25L64,258.4a22.28,22.28,0,0,0-4.18,1.14"/><path class="cls-4" d="M104,256.87l3.51,6.76a1.69,1.69,0,0,0,.85.93,1.62,1.62,0,0,0,.87-.05,30.17,30.17,0,0,0,6.61-2.56A36.8,36.8,0,0,1,108,250.54a32.16,32.16,0,0,1-4.63,5.88"/><path class="cls-8" d="M61.57,270a49.17,49.17,0,0,0-7.64,9.2l9.9-4.31a15.3,15.3,0,0,0,3.1-1.64,7.79,7.79,0,0,0,3-4.59,23.64,23.64,0,0,0-9.24,2.17"/><path class="cls-8" d="M115.83,261.78a6.37,6.37,0,0,0-5.15,1.24,13.11,13.11,0,0,0-3.47,4.17,29.86,29.86,0,0,0-3.33,8.51c1.5.47,3-.54,4.24-1.55a47.21,47.21,0,0,0,5.44-5.33,10,10,0,0,0,2.2-3.53,3.92,3.92,0,0,0-.81-3.9"/><path class="cls-8" d="M50.93,77.26a60.5,60.5,0,0,0,3.77,24.09l6.22-10.42a46,46,0,0,0,8.58,6.55A34.3,34.3,0,0,0,67.25,70.1C66,71.66,67,74.27,65.76,75.85A4.78,4.78,0,0,1,63,77.22c-3.88.92-8.3,1.62-11.57-.66"/><g class="cls-9"><path class="cls-5" d="M46.5,1.43c-7-.48-15.75.73-21.45,5.1a21.66,21.66,0,0,0-8.74,16.09c-.18,3.53.12,7.08-.15,10.61-.5,6.62-3,13.34-1.14,19.71a17.2,17.2,0,0,0,8.19,10A23,23,0,0,0,36,65.54c-7.1-2.63-13.44-8-15.86-15.2-1.43-4.25-1.43-8.85-1.29-13.34q.18-5.45.61-10.87c.29-3.6.69-7.31,2.45-10.47a19.58,19.58,0,0,1,2.57-3.5C29.23,6.75,35.66,2.59,42.8,1.57"/></g><path class="cls-10" d="M74.39,36.11a3,3,0,0,1-1.66.66c0,.75-.1,1.49-.17,2.24-.09,1.09,1.62,1.08,1.7,0s.17-2,.25-3Z"/><path class="cls-10" d="M67.62,54.42C63.23,66.65,49.84,67.74,38.61,67c-10.83-.74-23-4.87-24.12-17.34-.32-3.76.41-7.58.77-11.31.39-4.07.16-8.17.35-12.25.31-6.71,2.21-12.95,7.33-17.52,4.54-4.06,10.8-5.66,16.71-6.34a41.56,41.56,0,0,1,21.68,3l.43.22a3.16,3.16,0,0,1,.73-1.54c-10.11-5-24.09-5-34.2-.56a23.49,23.49,0,0,0-11,9.5c-3.36,5.66-3.43,12.56-3.48,18.94,0,7.27-2.19,15-.28,22.17A17.62,17.62,0,0,0,21.65,64.1c7.41,4.54,17.26,5.08,25.72,4.66,9.69-.48,18.43-4.25,21.89-13.89C69.63,53.84,68,53.4,67.62,54.42Z"/><path class="cls-10" d="M73.42,40.42c3.88-6.67,15.61-4.8,14.13,4-1.33,7.83-12.45,10.17-18.91,10a.85.85,0,0,0,0,1.7c8.29.18,21.93-3.88,20.66-14.57-.48-4-4.26-6.61-8-7a10,10,0,0,0-9.32,5,.85.85,0,0,0,1.47.86Z"/><path class="cls-10" d="M73.45,51.29a12.66,12.66,0,0,1,5.7-9.72c.32-.22,3.89-2.16,3.9-1a.5.5,0,0,0,1,0c0-3.3-5.45.13-6.44.89a13.62,13.62,0,0,0-5.16,9.83c0,.64,1,.64,1,0Z"/><path class="cls-10" d="M73.8,49.36a8.57,8.57,0,0,0,4.53-7.51.5.5,0,0,0-1,0,7.57,7.57,0,0,1-4,6.65c-.57.31-.07,1.17.5.86Z"/><path class="cls-10" d="M62.16,4C56.49,8.78,56.39,17.21,58,23.88a23,23,0,0,0,4.74,9.63c2.3,2.68,5.77,3.87,9,5,.62.21.88-.76.27-1-3.2-1.06-6.19-2.21-8.57-4.7s-3.62-6-4.48-9.18c-1.67-6.24-1.33-14.47,3.95-18.91.49-.42-.22-1.12-.71-.71Z"/><path class="cls-10" d="M62.53,5.27C69.39,4.07,74,10.69,75.92,16.35c2.07,6.16,1.45,12.92.94,19.28,0,.64,1,.64,1,0,.58-7.28,1.23-15.21-1.92-22.05-2.46-5.33-7.3-10.39-13.67-9.27-.64.11-.37,1.07.26,1Z"/><path class="cls-10" d="M22.53,6.31c-5.5,1.2-9.16,5.82-10.67,11.05a28.09,28.09,0,0,0-.43,11.11c.36,3,.63,6.54,2.56,9,.4.5,1.1-.21.71-.71-1.87-2.38-2-6.33-2.38-9.21a29.1,29.1,0,0,1,.28-9c1-5.26,4.84-10.07,10.2-11.25.63-.14.36-1.1-.27-1Z"/><path class="cls-10" d="M20.47,31.19v5.53a.85.85,0,0,0,1.7,0V31.19a.85.85,0,0,0-1.7,0Z"/><path class="cls-10" d="M47.3,31.92l.06,6a.85.85,0,0,0,1.7,0l-.06-6a.85.85,0,0,0-1.7,0Z"/><path class="cls-10" d="M16.92,26.92a6.62,6.62,0,0,1,7.16-5c1.1.09,1.09-1.61,0-1.7a8.31,8.31,0,0,0-8.8,6.26.85.85,0,0,0,1.64.46Z"/><path class="cls-10" d="M44.28,22.73a8.73,8.73,0,0,1,8,3.25c.69.85,1.89-.36,1.2-1.21A10.26,10.26,0,0,0,44.28,21c-1.07.13-1.09,1.83,0,1.7Z"/><path class="cls-10" d="M17.63,38.38a6,6,0,0,0,5.5,1.31.25.25,0,0,0-.14-.48A5.5,5.5,0,0,1,18,38c-.24-.21-.6.14-.35.35Z"/><path class="cls-10" d="M19.72,42.08A8.46,8.46,0,0,0,24.64,41c.28-.15,0-.59-.25-.43a8.09,8.09,0,0,1-4.67,1c-.32,0-.32.47,0,.5Z"/><path class="cls-10" d="M45.38,41.91a5.89,5.89,0,0,0,7-2.6.25.25,0,0,0-.43-.25,5.38,5.38,0,0,1-6.41,2.36c-.31-.1-.44.38-.13.49Z"/><path class="cls-10" d="M44.42,39.29a7.61,7.61,0,0,0,4.22,1.25.25.25,0,0,0,0-.5,7,7,0,0,1-4-1.18c-.28-.18-.53.26-.26.43Z"/><path class="cls-10" d="M36.17,33.4a4.16,4.16,0,0,0-6.69-.31c-2,2.65-.9,6,1.9,7.57.57.31,1.07-.55.51-.86a4.13,4.13,0,0,1-2.06-5.45,3.19,3.19,0,0,1,5.48-.44c.36.52,1.23,0,.86-.51Z"/><path class="cls-10" d="M30.49,43.88a7.39,7.39,0,0,0,9.14-4c.26-.58-.6-1.09-.87-.5a6.4,6.4,0,0,1-8,3.55c-.62-.2-.88.77-.27,1Z"/><path class="cls-10" d="M36.29,45.28a4.87,4.87,0,0,0,3.35-1.58c.22-.24-.14-.59-.35-.35a4.36,4.36,0,0,1-3,1.43c-.32,0-.32.52,0,.5Z"/><path class="cls-10" d="M31.2,19.65a35.35,35.35,0,0,1,1.21,3.91.25.25,0,0,0,.48-.13,35.31,35.31,0,0,0-1.2-3.91c-.12-.3-.6-.17-.49.13Z"/><path class="cls-10" d="M34,19.13V23.2a.25.25,0,0,0,.5,0V19.13a.25.25,0,0,0-.5,0Z"/><path class="cls-10" d="M36.69,57.4a4.16,4.16,0,0,1,4-.54c.3.11.43-.37.14-.49a4.65,4.65,0,0,0-4.43.59c-.26.19,0,.63.25.44Z"/><path class="cls-10" d="M62.53,4.8a36.27,36.27,0,0,0,9.75,33.56c.23.23.59-.12.36-.35A35.75,35.75,0,0,1,63,4.93c.07-.31-.41-.45-.48-.13Z"/><path class="cls-10" d="M63.67,5.46A84.39,84.39,0,0,1,73,38.16c0,.32.53.33.5,0A84.93,84.93,0,0,0,64.1,5.21c-.15-.29-.58,0-.43.25Z"/><path class="cls-10" d="M68.25,5.76c3.93,3.35,5.49,9.48,6.7,14.31a31.92,31.92,0,0,1,0,16.38.25.25,0,0,0,.48.13,33.26,33.26,0,0,0,0-16.64C74.31,15.09,72.54,8.76,68.6,5.41c-.24-.21-.6.15-.35.35Z"/><path class="cls-10" d="M18.29,12A27.07,27.07,0,0,0,13,20.42c-.65,1.61-2.66,6.69-1.2,8.2a.25.25,0,0,0,.36-.35C11,27,13,22.05,13.51,20.55a24.78,24.78,0,0,1,5.14-8.17c.21-.24-.14-.59-.36-.35Z"/><path class="cls-10" d="M60,64.53l5,8.75a.85.85,0,0,0,1.47-.86l-5-8.74a.85.85,0,0,0-1.47.85Z"/><path class="cls-10" d="M48.09,69.68c1.4,5.49,3.74,10.71,10.23,10.28a8.69,8.69,0,0,0,8.33-8.54.85.85,0,0,0-1.7,0c0,4-3.29,6.62-7.12,6.87-5.37.35-7-4.78-8.1-9.06a.85.85,0,0,0-1.64.45Z"/><path class="cls-10" d="M49.78,74.62c-11,5.86-11,19.11-12.21,29.92-.85,7.22-2.49,14.12-6.65,20.19-3.91,5.71-9.52,10.13-15,14.24-.86.65,0,2.13.86,1.47a80.77,80.77,0,0,0,13.49-12.1,37.38,37.38,0,0,0,7.9-16.77c2.5-11.78-.08-28.8,12.45-35.48,1-.52.11-2-.85-1.47Z"/><path class="cls-10" d="M64.32,71.41c4.41-1.72,9.09-3.19,13.86-3.27,5.7-.1,9.52,5.32,13.36,8.87,7.25,6.7,14.82,13.26,20.32,21.55,12.46,18.78,7.08,44.32-10,58.31-.85.7.36,1.89,1.2,1.2,17.85-14.59,22.9-40.82,10.3-60.37-5.71-8.86-14-15.76-21.63-22.87C88,71.42,84.78,67.1,79.5,66.5s-10.87,1.41-15.63,3.27c-1,.39-.58,2,.45,1.64Z"/><path class="cls-10" d="M46.26,90.15c7.93,18.68.93,38.85-1.73,57.86-.15,1.07,1.49,1.53,1.64.45,2.73-19.56,9.71-40,1.56-59.16-.43-1-1.89-.14-1.47.85Z"/><path class="cls-10" d="M45.41,149.72c16.93,6.24,41.06,9.23,55.49-4.1.81-.75-.4-2-1.2-1.21-14,12.9-37.53,9.68-53.83,3.67-1-.38-1.47,1.26-.46,1.64Z"/><path class="cls-10" d="M92,103.13a106.62,106.62,0,0,1,8,39.33.85.85,0,0,0,1.7,0,108,108,0,0,0-8.1-39.78c-.41-1-2.06-.56-1.64.45Z"/><path class="cls-10" d="M33.69,119.89c-2.66,5.62-6.8,10.14-11.35,14.3-4.33,4-9.55,6.6-14.16,10.2C4.27,147.44,1.46,151,.37,155.92A15,15,0,0,0,3,168.29c.65.86,2.13,0,1.47-.85-3.09-4.05-3.39-9-1.72-13.73,1.86-5.23,6.79-8.4,11.22-11.28,8.51-5.51,16.74-12.33,21.17-21.69.47-1-1-1.84-1.47-.85Z"/><path class="cls-10" d="M13,156.53c1.29-3.7,5.83-4.65,9.08-5.89a85.51,85.51,0,0,0,9.41-4.26,54.4,54.4,0,0,0,16.82-13.3c.69-.84-.51-2.05-1.2-1.2C42,138,35.54,142.48,28.5,146a87.84,87.84,0,0,1-11.12,4.53,9.56,9.56,0,0,0-6,5.56c-.36,1,1.28,1.48,1.64.45Z"/><path class="cls-10" d="M26.23,164.62c1.37-10.83-11.38-16.46-19.54-10.38-4.29,3.19-4.87,9-5,13.94-.18,7,.86,14.06,1.29,21,1.86,29.86,2.17,59.79,2.26,89.7,0,2.58,4,2.58,4,0C9.16,253.24,8.9,227.58,7.68,202q-.45-9.33-1.08-18.64c-.4-5.89-1.21-11.82-.78-17.73.37-5.11,2.43-9.36,8-9.9,5.28-.52,9.1,3.78,8.45,8.94-.32,2.56,3.68,2.52,4,0Z"/><path class="cls-10" d="M12.1,154.73a10,10,0,0,0-.88,6.29c.2,1.08,1.83.62,1.64-.45a8.08,8.08,0,0,1,.7-5c.48-1-1-1.84-1.46-.86Z"/><path class="cls-10" d="M11.63,160.82a1.9,1.9,0,0,1-2.49-1.45c-.2-1.08-1.84-.62-1.64.45a3.6,3.6,0,0,0,5,2.46c1-.44.13-1.91-.86-1.46Z"/><path class="cls-10" d="M9.62,162a.85.85,0,0,0,0-1.7.85.85,0,0,0,0,1.7Z"/><path class="cls-10" d="M16.35,139.76a17,17,0,0,0,7.31,10c.93.6,1.78-.87.86-1.46a15.28,15.28,0,0,1-6.54-9,.85.85,0,0,0-1.63.45Z"/><path class="cls-10" d="M50.09,75.15a34.83,34.83,0,0,0,3.77,10.33c1,1.74,4,6,6.53,5.32,1.21-.34,2-2,2.69-2.92a22.79,22.79,0,0,0,3.21-16.94c-.12-.63-1.08-.36-1,.27a22.18,22.18,0,0,1-4.42,18c-2.12,2.68-6.56-4.77-7.22-6.08a35.61,35.61,0,0,1-2.64-8.21c-.14-.63-1.1-.36-1,.27Z"/><path class="cls-10" d="M53.63,78.93a13.39,13.39,0,0,0,5,7,.5.5,0,0,0,.6-.08A16.38,16.38,0,0,0,63,78c.11-.63-.85-.9-1-.27a15.41,15.41,0,0,1-3.53,7.44l.61-.08a12.15,12.15,0,0,1-4.52-6.44.5.5,0,0,0-1,.26Z"/><path class="cls-10" d="M59,90.26c3.91,9.78,2.36,20.38,2,30.62a141.48,141.48,0,0,0,2.45,31.75c.12.63,1.08.36,1-.27A144.88,144.88,0,0,1,62.07,119c.44-9.74,1.64-19.74-2.07-29-.24-.59-1.2-.33-1,.27Z"/><path class="cls-10" d="M45.62,149.65c-7.61,36.94-11.67,79.24,13,111,.67.86,1.86-.35,1.2-1.21-24.21-31.21-20-73.13-12.53-109.36.22-1.07-1.42-1.52-1.64-.45Z"/><path class="cls-10" d="M62.15,171.8c-5.39,12.44-5.72,26.34-5.46,39.69A167.91,167.91,0,0,0,64,257.85c.32,1,2,.6,1.64-.45a164.12,164.12,0,0,1-7.23-44.31c-.35-13.51-.26-27.82,5.2-40.43.43-1-1-1.86-1.47-.86Z"/><path class="cls-10" d="M101.76,158.32c-3.8,5.17-4.14,11.9-4.38,18.08-.32,8.35-.46,16.69-.08,25a174.36,174.36,0,0,0,9.14,49.42c.36,1,2,.58,1.64-.45a174.13,174.13,0,0,1-9-48c-.43-8-.36-15.92,0-23.88.26-6.56.15-13.81,4.22-19.34.65-.88-.82-1.73-1.47-.86Z"/><path class="cls-10" d="M72.39,171.71c.11,30.63,11.07,60.91,28,86.21.61.91,2.08.06,1.47-.86-16.74-25.06-27.63-55-27.74-85.35a.85.85,0,0,0-1.7,0Z"/><path class="cls-10" d="M57.18,171.11A53.08,53.08,0,0,0,81,171c1.07-.25.61-1.89-.45-1.64a51.13,51.13,0,0,1-22.89.12c-1.07-.24-1.52,1.4-.45,1.63Z"/><path class="cls-10" d="M59.44,261.06a10.89,10.89,0,0,0,6.32-2.84c.81-.74-.4-1.94-1.21-1.2a8.91,8.91,0,0,1-5.11,2.34c-1.08.11-1.09,1.82,0,1.7Z"/><path class="cls-10" d="M101.62,258.29c2.83-2.16,5.58-4.58,6.5-8.15a.85.85,0,0,0-1.64-.45c-.8,3.11-3.25,5.25-5.71,7.13-.86.66,0,2.13.85,1.47Z"/><path class="cls-10" d="M63.44,260A63.93,63.93,0,0,1,69,270.56c.41,1,2.06.56,1.64-.45a66.75,66.75,0,0,0-5.76-11c-.59-.92-2.06-.07-1.47.86Z"/><path class="cls-10" d="M58.33,260.65l1.23,4.44c.35,1.26,1.64,3.87.53,5-2.45,2.55-5.18,4.89-7.75,7.32a.85.85,0,0,0,.6,1.45,29.76,29.76,0,0,0,17.29-7.55c.81-.73-.39-1.93-1.21-1.2a27.9,27.9,0,0,1-16.08,7.05l.6,1.45L58.47,274c1.28-1.21,2.91-2.34,3.74-3.92.54-1-.26-2.69-.52-3.65L60,260.2a.85.85,0,0,0-1.64.45Z"/><path class="cls-10" d="M102.67,257.08c1.4,2.65,2.91,5.21,4.56,7.71.57.86-1.21,3.34-1.6,4.15q-1,2.13-2,4.28c-.49,1-1.19,2.28.12,3s3.8-1.34,4.8-2a41.78,41.78,0,0,0,5.93-4.94c1-1,3.47-2.89,3.47-4.48,0-2.17-2.63-4.76-3.77-6.48l-5.4-8.17c-.61-.91-2.08-.06-1.47.86l5.4,8.17,2.71,4.08c1.28,1.94-.84,3.5-2.14,4.82a40.49,40.49,0,0,1-7.7,6c-.7.06-.73-.25-.07-.93.4-.86.82-1.71,1.23-2.57q1.23-2.56,2.51-5.12a.88.88,0,0,0,0-.86,89,89,0,0,1-5.06-8.45c-.51-1-2-.11-1.47.86Z"/><path class="cls-10" d="M76.55,84.78c2.51,5,6.67,8.62,10.56,12.48A65.2,65.2,0,0,1,98.7,112.51a37.73,37.73,0,0,1,4.79,18.81c-.16,6.46-2.75,12.54-6.1,18-.57.93.9,1.78,1.47.85,6.69-10.8,8.25-22.86,3.12-34.68A61.56,61.56,0,0,0,91.23,99.12C86.76,94.11,81.11,90,78,83.93c-.49-1-2-.12-1.46.85Z"/><path class="cls-10" d="M97,149.23a13.8,13.8,0,0,0,5.08,9.68c.84.68,2.05-.52,1.2-1.21a12.09,12.09,0,0,1-4.58-8.47c-.09-1.09-1.8-1.09-1.7,0Z"/><path class="cls-10" d="M50.19,75.49a44.4,44.4,0,0,0,.33,13.66c.61,3.9,1,8.63,3.89,11.6a.5.5,0,0,0,.78-.1,48.63,48.63,0,0,0,5.46-9.82c.25-.59-.72-.85-1-.26a47.52,47.52,0,0,1-5.35,9.57l.78-.1c-2.54-2.62-2.86-6.76-3.47-10.2a43,43,0,0,1-.49-14.09c.1-.63-.87-.9-1-.26Z"/><path class="cls-10" d="M60.11,91.05A30.62,30.62,0,0,0,68.3,98.5c2.53,1.43,2.53-3,2.68-4.24,1-8.42.52-17.23-4-24.6-.34-.54-1.21,0-.86.51,3.48,5.61,4.48,12,4.34,18.51,0,1.56-.18,3.11-.33,4.65s0,5.28-2.56,3.48a34.46,34.46,0,0,1-6.7-6.46c-.41-.51-1.11.21-.71.7Z"/><path class="cls-10" d="M66.25,103.8a1.5,1.5,0,0,0,0-3,1.5,1.5,0,0,0,0,3Z"/><path class="cls-10" d="M67,112.86a1.5,1.5,0,0,0,0-3,1.5,1.5,0,0,0,0,3Z"/><path class="cls-10" d="M67,123a1.5,1.5,0,0,0,0-3,1.5,1.5,0,0,0,0,3Z"/><path class="cls-10" d="M67.28,135.66a1.5,1.5,0,0,0,0-3,1.5,1.5,0,0,0,0,3Z"/><path class="cls-10" d="M68.32,146.53a1.5,1.5,0,0,0,0-3,1.5,1.5,0,0,0,0,3Z"/><path class="cls-10" d="M62.34,153.32a136.62,136.62,0,0,0,.09,17.87c0,.64,1,.64,1,0a136.62,136.62,0,0,1-.09-17.87c0-.65-1-.64-1,0Z"/><path class="cls-10" d="M69,154.36l-.41,17.35a.5.5,0,0,0,1,0L70,154.36a.5.5,0,0,0-1,0Z"/><path class="cls-10" d="M92.41,149.81a22.59,22.59,0,0,0,4.94,22.39c.44.47,1.14-.24.71-.71a21.59,21.59,0,0,1-4.69-21.42c.2-.61-.76-.87-1-.26Z"/><path class="cls-10" d="M51,151.1c-.86,5.88-4,10.85-7.23,15.72-.36.54.51,1,.86.51,3.26-5,6.46-10,7.34-16,.09-.63-.87-.9-1-.26Z"/><path class="cls-10" d="M58.09,170.94a144.21,144.21,0,0,0,3.9,88.5c.23.6,1.19.34,1-.27a143.16,143.16,0,0,1-3.9-88,.5.5,0,0,0-1-.27Z"/><path class="cls-10" d="M58.08,258.14a12.23,12.23,0,0,0,5.7-3.43c.44-.46-.26-1.17-.7-.7a11.45,11.45,0,0,1-5.27,3.17.5.5,0,0,0,.27,1Z"/><path class="cls-10" d="M99.26,253.94a26.68,26.68,0,0,0,5.29-6.84c.3-.57-.56-1.07-.87-.5a25.42,25.42,0,0,1-5.13,6.63c-.47.44.24,1.15.71.71Z"/><path class="cls-10" d="M61,271.57a13.58,13.58,0,0,1,7.55-1.28c.64.07.63-.93,0-1a14.53,14.53,0,0,0-8.05,1.41c-.58.28-.08,1.14.5.87Z"/><path class="cls-10" d="M106.85,269.36a13.4,13.4,0,0,1,8.74-7.3.5.5,0,0,0-.27-1,14.39,14.39,0,0,0-9.33,7.76c-.28.58.59,1.09.86.51Z"/><path class="cls-10" d="M79.66,87.38c-3.22-4.89-5.88-15.19-.06-19.23.9-.62.05-2.09-.86-1.46-6.67,4.63-4.35,15.77-.55,21.54.6.92,2.07.06,1.47-.85Z"/><path class="cls-10" d="M76.12,74.58c6.92,4.33,13.3,8.85,18.61,15.1,2.65,3.11,5,6.44,7.49,9.69a59.87,59.87,0,0,1,6.91,10.57c7.17,15.41-.45,32.76-9.22,45.67-.36.53.51,1,.87.5,9-13.28,15.91-29.87,9.6-45.78a44.19,44.19,0,0,0-6.19-10c-2.53-3.34-5-6.71-7.63-10-5.59-7-12.41-11.92-19.94-16.63-.54-.34-1.05.53-.5.87Z"/><path class="cls-10" d="M18.74,138.23a23.7,23.7,0,0,0,7.16,10.13c.5.41,1.21-.29.71-.71A22.73,22.73,0,0,1,19.7,138c-.22-.6-1.19-.34-1,.27Z"/><path class="cls-10" d="M98.69,146.69c1.28,3.5,2.76,7.12,6.11,9.1a.5.5,0,0,0,.5-.86c-3.11-1.84-4.46-5.26-5.65-8.5-.22-.6-1.19-.34-1,.26Z"/><path class="cls-10" d="M85.3,95.13a149.68,149.68,0,0,1,10.64,52,.5.5,0,0,0,1,0A150.19,150.19,0,0,0,86.26,94.87c-.23-.59-1.2-.33-1,.26Z"/></g></g></g></svg>