<svg xmlns="http://www.w3.org/2000/svg" viewBox="0 0 113.87 300.93"><defs><style>.cls-1{fill:#f9bb8a;}.cls-2{fill:#ea927a;}.cls-3{fill:#fc8dc0;}.cls-4{fill:#f9da55;}.cls-5{fill:#7a5332;}.cls-6{fill:#5b371e;}.cls-7{fill:#de953d;}.cls-8{fill:#c9c0b9;}.cls-9{fill:#2d4959;}.cls-10{fill:#203842;}.cls-11{fill:#fff;}.cls-12{fill:#5199ce;}.cls-13{fill:#446baa;}.cls-14{fill:#260d0d;}</style></defs><g id="Layer_2" data-name="Layer 2"><g id="Objects"><path class="cls-1" d="M58.38,78.56a.59.59,0,0,1,.36-.09c13.1.13,21.62-10,23.41-22.46,1.55-10.73-.39-21.47.49-32.21a47.16,47.16,0,0,1-10,6c-.58.26-1-.38-.87-.9a17.36,17.36,0,0,1,2.69-5.64c-6.61,3.86-13.9,7.24-21.42,8.62-4.5.83-9.89,1.62-14.35,0C37.91,47.66,36.5,78.27,58.38,78.56ZM51.05,46.49a.28.28,0,0,0,0,.09,1.33,1.33,0,0,1-1.37.9,2,2,0,0,1-1.24-2.56,1.56,1.56,0,0,1,1.13-1.14,1.27,1.27,0,0,1,1.3.46A2.81,2.81,0,0,1,51.05,46.49ZM70.46,35.58c.77-1.42,3.09-1.94,4.58-1.54a5.54,5.54,0,0,1,3.77,2.87c.14.26-.15.74-.47.54a7.58,7.58,0,0,0-4-1.27c-1.2,0-2.27.55-3.44.55C70.36,36.74,70.25,36,70.46,35.58ZM71.14,43l.23,0s0,0,.09-.06a1,1,0,0,1,1.35.56c.62,1.22.27,3.9-1.66,3.34C69.61,46.31,69.53,43.36,71.14,43ZM56.41,55c.7-.94,1.85-.95,1.79-2.43,0-.22.28-.22.36-.06A2.21,2.21,0,0,1,58.28,55c-.53.63-2,1.45-.75,2.38a9.06,9.06,0,0,0,1.8.73.54.54,0,0,1-.08,1A2.91,2.91,0,0,1,56,56.88,2.45,2.45,0,0,1,56.41,55ZM68.7,63.72c.53-.92,1.78.17,1.28,1.06-2,3.44-5.61,6.47-9.83,6-3-.3-6.84-1.89-7-5.29h-.71c-.25,0-.27-.44,0-.48C57.86,64.33,63.25,64,68.7,63.72ZM44,38.26c1.5-2.53,6.16-4.46,8.46-1.88a.74.74,0,0,1-.4,1.18c-1.38.14-2.64-.52-4.07-.21a10.11,10.11,0,0,0-3.56,1.51C44.05,39.08,43.8,38.52,44,38.26Z" transform="translate(0 0)"/><path class="cls-2" d="M82.64,23.8a47.16,47.16,0,0,1-10,6c-.58.26-1-.38-.87-.9a17.36,17.36,0,0,1,2.69-5.64c-6.61,3.86-13.9,7.24-21.42,8.62-4.5.83-9.89,1.62-14.35,0,0,.7-.07,1.43-.11,2.18a29.06,29.06,0,0,0,8.76,1.48,5.1,5.1,0,0,1,3.89,0c5.81-.42,11.28-2.34,16.79-4.23a.5.5,0,0,1,.61.35c1.27,4.1,8.79-.36,10.92,4,1.19,2.43.53,5.39.77,8a57.59,57.59,0,0,1,0,11.52,32.1,32.1,0,0,1-8.08,17.22,23.13,23.13,0,0,1-6.85,5.2C74.72,74.83,80.69,66.21,82.15,56,83.7,45.28,81.76,34.54,82.64,23.8Z" transform="translate(0 0)"/><path class="cls-3" d="M67.68,65.24c-4.67.25-9.32.4-14,.31C57.1,71.36,64.1,69.82,67.68,65.24Z" transform="translate(0 0)"/><path class="cls-2" d="M36,44.55c-2.45-.89-3.82-.48-4.11,1.21a14,14,0,0,0-.67,5.49c.47,3.28,2.65,6.49,6.2,5.68a57.52,57.52,0,0,1-.65-7A7.28,7.28,0,0,0,36,48.88c-.63-.73-2.41-2.1-2.8-.34,0,.13-.2.05-.2-.06,0-1.4,1.65-1.61,2.69-1.16a3.09,3.09,0,0,1,1,.78c0-.69,0-1.38,0-2.07A10.22,10.22,0,0,0,36,44.55Z" transform="translate(0 0)"/><path class="cls-2" d="M90.79,50.13A8.26,8.26,0,0,0,91.3,46,4.29,4.29,0,0,0,88,42.23c-1.09.83-2.17,1.67-3.25,2.51l0,0c0,1,0,2,0,2.94a7.9,7.9,0,0,1,1.71-2c.79-.62,2.41-.11,1.86,1-.08.16-.27.05-.23-.11-.39-.65-.78-.77-1.19-.35l-.3.33c-.13.17-.24.34-.35.51-.26.38-.51.75-.74,1.15-.31.57-.57,1.17-.84,1.76-.1,1.86-.28,3.7-.56,5.51C87.06,54.87,89.8,53.17,90.79,50.13Z" transform="translate(0 0)"/><path class="cls-4" d="M62.45,92.23a11.81,11.81,0,0,0,8.68-7.83l-2.06-.5c-.83,3.48-3.74,6.69-7.56,6.68A7.83,7.83,0,0,1,53.93,85l-2.06.3A8.87,8.87,0,0,0,62.45,92.23Z" transform="translate(0 0)"/><path class="cls-2" d="M67.47,83.73a1,1,0,0,1-.24-.5A15.22,15.22,0,0,1,67,79.45a16,16,0,0,1-7.75.6,15.13,15.13,0,0,1-2.23,0,24.35,24.35,0,0,1,.12,3.18.76.76,0,0,1-.42.73.79.79,0,0,1-.69.71l-1.27.17C57.75,90.21,66,90.29,67.47,83.73Z" transform="translate(0 0)"/><path class="cls-5" d="M55.67,80c-6.83-1-12.74-6.4-15.46-12.84a42.57,42.57,0,0,1-2.52-8.49,5.84,5.84,0,0,1-6-2c-2.14-2.79-2.28-5.95-1.64-9.3.45-2.33,1-5.32,3.78-5.67,1.43-.19,2.37.9,3,2.17A102.83,102.83,0,0,1,38.12,31.7,11,11,0,0,1,35.26,30c-.15-.12,0-.47.17-.34,6.6,4.1,17.28,1.47,24.07-1.05a137.73,137.73,0,0,0,16-7.59c.79-.42,1.28.9.56,1.33l0,0a34.15,34.15,0,0,0-2.56,5.49,52.83,52.83,0,0,0,8.93-5.6.58.58,0,0,1,.75,0h0a.71.71,0,0,1,.12,1c.36,6.31,1.22,13.06,1.45,19.78a2.92,2.92,0,0,1,2.4-2c2.61-.23,4.33,1.26,5.32,3.61,2.45,5.87-3.18,12-8.66,12.86a37.05,37.05,0,0,1-2.08,6.9c-2.57,6.09-7.41,12-13.57,14.57a22.36,22.36,0,0,0,.72,3.57.69.69,0,0,1,.33.46A25.37,25.37,0,0,1,80.79,85.8a11.11,11.11,0,0,0,2.48-1.75,18.74,18.74,0,0,0,3.17-4.71c-.07-1.09-.15-2.19-.12-3.28A.35.35,0,0,1,87,76c1.35,3,1.32,7.3.47,10.58,7.37-5.05,7.17-12.19,5.76-20.61a44.9,44.9,0,0,1,.39-16.34C96,37.06,97.23,22.87,86.92,13.4a1.19,1.19,0,0,1-.37-.66c0-.05-.08-.09-.11-.15C80.53.68,65-.32,53.82,4c-9.42,3.63-17.94,10.56-22,20-4.52,10.55-6.47,22.94-7.08,34.37-.32,6-.39,12.23.88,18.15.62,2.89,1.48,6.14,3.38,8.5a3,3,0,0,0,3,2.08c0-.6-.05-1.2-.08-1.81a11.79,11.79,0,0,1-1.1-4.76c0-.7.92-.58,1,0a16.69,16.69,0,0,0,3,6.67,12.55,12.55,0,0,0,1.72,1.7c5.09-3.38,11.56-4.93,18.58-6A6.64,6.64,0,0,1,55.67,80Z" transform="translate(0 0)"/><path class="cls-6" d="M93.62,49.59a81.88,81.88,0,0,0,1.64-13.83,4.27,4.27,0,0,1-1.17.73c-5.59,2.34-7.14-8.07-8-13.66a.53.53,0,0,1-.7.22c-2.68-1.14-3.3-3.92-3.61-6.57-.94,1.25-2.45,2.9-3.36,1.77-1.12-1.41-1-3.71-1.33-5.54-6.5,4.89-14.35,9.55-22.49,10.71-1.19.16-3.44.14-3.73-1.46s.53-3.16,1.46-4.54c-4,1.9-12.06,5.53-13,1.7-.69-2.93,1.9-6.67,3.87-9.3A35.37,35.37,0,0,0,31.83,24c-4.52,10.55-6.47,22.94-7.08,34.37-.32,6-.39,12.23.88,18.15.62,2.89,1.48,6.14,3.38,8.5a3,3,0,0,0,3,2.08c0-.6-.05-1.2-.08-1.81a11.79,11.79,0,0,1-1.1-4.76c0-.7.92-.58,1,0a16.69,16.69,0,0,0,3,6.67,12.55,12.55,0,0,0,1.72,1.7c5.09-3.38,11.56-4.93,18.58-6a6.64,6.64,0,0,1,.46-3c-6.83-1-12.74-6.4-15.46-12.84a42.57,42.57,0,0,1-2.52-8.49,5.84,5.84,0,0,1-6-2c-2.14-2.79-2.28-5.95-1.64-9.3.45-2.33,1-5.32,3.78-5.67,1.43-.19,2.37.9,3,2.17A102.83,102.83,0,0,1,38.12,31.7,11,11,0,0,1,35.26,30c-.15-.12,0-.47.17-.34,6.6,4.1,17.28,1.47,24.07-1.05a137.73,137.73,0,0,0,16-7.59c.79-.42,1.28.9.56,1.33l0,0a34.15,34.15,0,0,0-2.56,5.49,52.83,52.83,0,0,0,8.93-5.6.58.58,0,0,1,.75,0h0a.71.71,0,0,1,.12,1c.36,6.31,1.22,13.06,1.45,19.78a2.92,2.92,0,0,1,2.4-2c2.61-.23,4.33,1.26,5.32,3.61,2.45,5.87-3.18,12-8.66,12.86a37.05,37.05,0,0,1-2.08,6.9c-2.57,6.09-7.41,12-13.57,14.57a22.36,22.36,0,0,0,.72,3.57.69.69,0,0,1,.33.46A25.37,25.37,0,0,1,80.79,85.8a11.11,11.11,0,0,0,2.48-1.75,18.74,18.74,0,0,0,3.17-4.71c-.07-1.09-.15-2.19-.12-3.28A.35.35,0,0,1,87,76c1.35,3,1.32,7.3.47,10.58,7.37-5.05,7.17-12.19,5.76-20.61A44.9,44.9,0,0,1,93.62,49.59Z" transform="translate(0 0)"/><path class="cls-4" d="M75.13,115.3c2-.48,4.09-1.59,4.61-3.76a4.88,4.88,0,0,0-1.49-5.08c-2.56-2-4.71-.71-7.48-.53a4.84,4.84,0,0,0-2.48,5.32A5.55,5.55,0,0,0,75.13,115.3Zm1-6.92c.69.46.43,1.67-.48,1.51a.38.38,0,0,1-.23-.15l-.06,0C74.88,109.13,75.25,107.82,76.09,108.38Zm-4.7.38v-.21a.39.39,0,0,1,.54-.35l.11.08s0,0,0,0l.07,0a.58.58,0,0,1,.1.12.84.84,0,0,1-.31,1.29.39.39,0,0,1-.5-.22A.94.94,0,0,1,71.39,108.76Zm-.83,3A4.61,4.61,0,0,0,73.93,113a9,9,0,0,0,2.77-1.18c.31-.14.48.25.36.49a3.71,3.71,0,0,1-3.5,1.62,4.13,4.13,0,0,1-3.17-2C70.31,111.89,70.43,111.67,70.56,111.79Z" transform="translate(0 0)"/><path class="cls-1" d="M90,140.59h0s0,0,0,0a14.28,14.28,0,0,0-.22-1.46,17.37,17.37,0,0,0-1.16-3.29c-.58-1.2-1.27-2.33-1.87-3.51a.69.69,0,0,1-.78,0,21.67,21.67,0,0,0-3.38-1.66c-.16-.07-.33-.12-.5-.18a3.52,3.52,0,0,1-.89-.3l-.15-.05a14.63,14.63,0,0,0-6.66-.56,14.32,14.32,0,0,0-3,.74l-.81.56,2.45.27c1.63.18,3.26.35,4.88.64a.29.29,0,0,1,.16.07,5.75,5.75,0,0,1,3.44.41.5.5,0,0,1-.2,1c-2.07,0-3.88-.18-5.79.86a12.66,12.66,0,0,0-2.47,1.68c-.47.43-2.89,2.62-.68,3.27l0,0A19.82,19.82,0,0,1,78,136.27a6.22,6.22,0,0,1,4.51-.17c.64.24.32,1.33-.38,1.09-2.26-.75-4.31.44-6.33,1.34-.62.28-1.29.51-1.88.85-1.07,1.53-.93,2.3.4,2.31l.23.06a5.55,5.55,0,0,1,1.29-1,10.47,10.47,0,0,1,5.56-1l.75.11a11,11,0,0,1,2.15.6c.77.31.38,1.65-.45,1.32-.35-.14-.7-.26-1.07-.37s-.62-.16-.94-.22a7.55,7.55,0,0,0-5.47.84c-1,1.28-1,1.67.12,1.16l1-.26a10.46,10.46,0,0,1,2-.2,9.13,9.13,0,0,1,2.92.21,4.08,4.08,0,0,0,1.19.17h0C86.59,144.12,88.15,142.55,90,140.59Z" transform="translate(0 0)"/><path class="cls-7" d="M80.33,284.61l-.45.07a16.55,16.55,0,0,1-12,2.3,50.7,50.7,0,0,0-.66,5.52,33.5,33.5,0,0,0,16.92,4.41c5.57.08,12.41.63,17.24-2.66-3.53-4.36-17.23-8.42-20.35-9.82C80.82,284.5,80.58,284.56,80.33,284.61Z" transform="translate(0 0)"/><path class="cls-4" d="M102,297.25a2.36,2.36,0,0,0-.07-2.22c-5.1,3.17-12,2.83-17.82,2.56-6.1-.29-11.76-1.35-16.89-4.66,0,.42-.06.84-.07,1.27a.31.31,0,0,1,0,.11c11.2,5.61,22.78,5.91,34.8,3.19A.72.72,0,0,1,102,297.25Z" transform="translate(0 0)"/><path class="cls-4" d="M29.93,163l0,.18c0,.23-.31.17-.32-.05v-.32a.24.24,0,0,1,0-.38A68.06,68.06,0,0,1,31.66,146c-2.51.38-5.49.72-7.49,1h0l-.69.07c-4.76.56-9.55,1-14.23,1.31,2.88,14.7,4.82,29.76,7.22,44.55a.56.56,0,0,1,.2.25,3.4,3.4,0,0,1,.9-.09c.81-2.17,2.1-5.4,4.75-4.87a1.73,1.73,0,0,1,.7.3,1.82,1.82,0,0,1,2.31-.91,2.92,2.92,0,0,1,1.23.9,3.21,3.21,0,0,1,2.26-1.45,123.07,123.07,0,0,1,1.31-23.12,1.32,1.32,0,0,1,.34-.71Z" transform="translate(0 0)"/><path class="cls-7" d="M29.9,163.15c0,.23-.31.17-.32-.05v-.32a.24.24,0,0,1,0-.38A68.06,68.06,0,0,1,31.66,146c-2.49.37-5.45.71-7.45,1-.74,3.6-.23,7.87.31,11a27,27,0,0,1,.52,6.08c-.11,1.67-.87,3-1.38,4.53-.86,2.62.17,5.11,0,7.78a9.54,9.54,0,0,1-1.59,4,12.45,12.45,0,0,1-6.72,5.51q.54,3.51,1.11,7a.56.56,0,0,1,.2.25,3.4,3.4,0,0,1,.9-.09c.81-2.17,2.1-5.4,4.75-4.87a1.73,1.73,0,0,1,.7.3,1.82,1.82,0,0,1,2.31-.91,2.92,2.92,0,0,1,1.23.9,3.21,3.21,0,0,1,2.26-1.45,123.07,123.07,0,0,1,1.31-23.12,1.32,1.32,0,0,1,.34-.71l-.54-.26Z" transform="translate(0 0)"/><path class="cls-1" d="M23.89,189.91a.53.53,0,0,1-.14.1,8.39,8.39,0,0,1-.53,3.05.57.57,0,0,1,.11.48,7,7,0,0,1-1.22,2.39l1,0c.78,0,2.24.24,2.45-1,.07-.41.13-.81.18-1.22C25.91,192.42,26.25,187.63,23.89,189.91Z" transform="translate(0 0)"/><path class="cls-1" d="M28,188.8a3.43,3.43,0,0,0-.89.66,4.31,4.31,0,0,1,.22,1.49,22.54,22.54,0,0,1-.51,4.1c0,.08,0,.16,0,.23a6.19,6.19,0,0,0,1.29-.2c.38-.11.76-.42,1.15-.42-.12-2-.22-4-.29-6A2.08,2.08,0,0,0,28,188.8Z" transform="translate(0 0)"/><path class="cls-8" d="M9.46,193.77c-1.57-7.66-2-15.69-2.78-23.46-.74-7.22-1.45-14.42-1.8-21.66-.83,1.32-2.53,2.44-4.1,2,1.59,14.09,3.29,28.62,3.43,42.8,0,0,0,0,0,.06.43.12.86.39,1.43.56a4.3,4.3,0,0,0,2.41.08A5.56,5.56,0,0,1,9.46,193.77Z" transform="translate(0 0)"/><path class="cls-1" d="M22.6,193.05c0-.55.17-1.05.23-1.65a3.36,3.36,0,0,0,0-1.14c-1.05-.94-1.8-.94-2.25,0a24.28,24.28,0,0,0-1.71,4.08.82.82,0,0,1-.85.55,8.31,8.31,0,0,0-1.73.15h0c.86.72,1.65,1.86,2.63,1.93,1.6.11,2.89-2.83,3.67-3.9Z" transform="translate(0 0)"/><path class="cls-4" d="M52.16,293.55a77.72,77.72,0,0,1-20.25,3.53c-3.71.18-10.12,1.38-13-1.72a5.74,5.74,0,0,0-.82,2.46c5.39,1.22,11.17.95,16.63.52,5.15-.42,13-.29,17.31-3.56a.39.39,0,0,1,.11-.06C52.14,294.33,52.14,293.94,52.16,293.55Z" transform="translate(0 0)"/><path class="cls-7" d="M37.26,295.93a74.19,74.19,0,0,0,15-3.43,16.48,16.48,0,0,0,0-2.63c0-.3-.06-.6-.1-.89l-.09,0c-4.87,1.5-10.35.54-13.78-3.38-5,1.09-15.72,4.32-19.13,9.37C22.67,298.73,32.87,296.51,37.26,295.93Z" transform="translate(0 0)"/><path class="cls-9" d="M74.29,283.28a26,26,0,0,0,6-.71C80.12,263,82,243.23,82.57,223.63q.41-14.91.59-29.83c.1-9.76-.56-19.76.23-29.48-16,5.21-35.35,6.62-50.91-.15,0,0,0,.05,0,.08-3.31,20.31.07,41.5,1.66,61.86,1.5,19.34,3.84,38.81,4.17,58.23a28.21,28.21,0,0,0,7.4,0,39.05,39.05,0,0,0,7-2.07C50,248.87,50.21,215.3,51.78,181.9c-1,.14-2,.3-3,.49-.33.06-.45-.46-.17-.6,3.69-1.9,9.41-4.06,13.52-2.55a.77.77,0,0,1,.15,1.28c3.37,33.7,5.31,67.81,3.77,101.68A39.42,39.42,0,0,0,74.29,283.28Z" transform="translate(0 0)"/><path class="cls-10" d="M51.78,181.9c-1,.14-2,.3-3,.49-.33.06-.45-.46-.17-.6a33.68,33.68,0,0,1,4.94-2.08,17.35,17.35,0,0,0-5.76.66c-1.89.62-7.07,2.62-3.43,5a5,5,0,0,1,2.46,2.85c1.14,4.52-.29,9.23-.14,13.82.2,6.12.6,12.22,1,18.33.88,12.38,1.93,24.81,1.53,37.23a167.78,167.78,0,0,1-1.62,17.34A91.59,91.59,0,0,1,46,284.23a40.55,40.55,0,0,0,6.73-2C50,248.87,50.21,215.3,51.78,181.9Z" transform="translate(0 0)"/><path class="cls-10" d="M83.39,164.32c-16,5.21-35.35,6.62-50.91-.15,0,0,0,.05,0,.08,0,.23-.06.47-.1.7a27.38,27.38,0,0,0,6.56,3.88,53.94,53.94,0,0,0,15.22,2.77c7.21.47,14.71.13,20.19,5.68,7.11,7.21,8.41,18.21,8.63,28.48q.12-6,.19-12C83.26,184,82.6,174,83.39,164.32Z" transform="translate(0 0)"/><path class="cls-1" d="M39.1,285.58c3.76,2.72,8,3.84,12.59,2.2a.54.54,0,0,1,.27,0c-.17-1-.37-2-.58-3A24.86,24.86,0,0,1,39.1,285.58Z" transform="translate(0 0)"/><path class="cls-11" d="M8.29,172.06c.87,7.24,2.12,14.61,2.25,21.9,0,0,0,0,0,.06a8.09,8.09,0,0,0,2.82.09,6.1,6.1,0,0,0,1.78-.85c-3.19-14.36-5.84-29.72-6.37-44.46a3.52,3.52,0,0,1-3.7-.05C6.42,156.48,7.35,164.27,8.29,172.06Z" transform="translate(0 0)"/><path class="cls-1" d="M76.77,285a31,31,0,0,1-8.27-1.11c-.12.56-.23,1.12-.34,1.68A21.13,21.13,0,0,0,76.77,285Z" transform="translate(0 0)"/><path class="cls-12" d="M36,132.94a105.61,105.61,0,0,1-1.46-31.39c.06-.56.77-.41.77.11A171.92,171.92,0,0,0,38,133a.93.93,0,0,1-.3.93,94.57,94.57,0,0,0-3.5,9.56c-.22.74-.44,1.48-.64,2.22A139.34,139.34,0,0,0,30,162.44c9.11,2,18,4.31,27.36,4.23a81.73,81.73,0,0,0,28.32-5.26c-.94-3.74-1-7.73-1.7-11.53-.34-1.75-.72-3.48-1.16-5.19a11.46,11.46,0,0,0-6.07,0,2.57,2.57,0,0,1-2.61-.3c-.74-.49-.6-1.2-.17-1.86-1.49-.26-2.94-1.63-2-3a1.46,1.46,0,0,1-1.21-1.15,3.33,3.33,0,0,1,1.2-3.11,13.87,13.87,0,0,1,4-2.78,21.82,21.82,0,0,1-5.46-.49c-.78-.22-.83-.23-1.22-.92a.56.56,0,0,1,0-.52c1.26-2,6-2.05,8-2.19a12.87,12.87,0,0,1,4,.39h.06c2.32-10,4.27-19.49,4.65-29.85a.28.28,0,0,1,.55,0A77.47,77.47,0,0,1,87,110.66c1.78,1.83,3.47,3.76,5.11,5.71s3.75,3.86,4.71,6.14a10.79,10.79,0,0,1,2.84-1.42c.62-.19.74.73.45,1.06-1.81,2.12-4.72,3.54-7,5.2-1.92,1.42-3.84,2.9-5.86,4.17a13.73,13.73,0,0,1,4.43,9.41l9.07-5.16c2.7-1.54,6.08-2.92,8.4-5,7-6.32-5.34-17.75-9.36-22.93-4.33-5.57-8.45-12.44-14-16.93a26.46,26.46,0,0,0-5.55-3.46c-.56-.27-1.12-.51-1.69-.75a53.38,53.38,0,0,0-6.53-2.06c-1.7,4.68-5.85,8.82-11.16,8.58-4.52-.2-8.66-3.3-9.28-7.88-4.83.75-9.85,1.84-13.9,4.44a15.37,15.37,0,0,0-1.34.94c-.35.26-.68.55-1,.84-5.11,4.61-6.94,10.83-7.93,17.45-1.76,11.86-2.72,23.89-3.29,35.89,2.68-.43,5.37-.82,8-1.19A88.69,88.69,0,0,1,36,132.94Zm34.63-27.76a6.71,6.71,0,0,1,10,2.7c1.69,3.74-1.56,7.91-5.26,8.44-4,.57-7.43-1.44-8-5.59A5.37,5.37,0,0,1,70.59,105.18Z" transform="translate(0 0)"/><path class="cls-13" d="M83.77,89.42a26.43,26.43,0,0,0-3.5-2c-.56-.27-1.12-.51-1.69-.75a53.38,53.38,0,0,0-6.53-2.06c-1.7,4.68-5.85,8.82-11.16,8.58-4.52-.2-8.66-3.3-9.28-7.88A55.16,55.16,0,0,0,44.1,87C53.66,98,73.23,99.66,83.77,89.42Z" transform="translate(0 0)"/><path class="cls-13" d="M82.83,144.69a11.46,11.46,0,0,0-6.07,0,2.57,2.57,0,0,1-2.61-.3c-.74-.49-.6-1.2-.17-1.86-1.49-.26-2.94-1.63-2-3a1.46,1.46,0,0,1-1.21-1.15,3.33,3.33,0,0,1,1.2-3.11,13.87,13.87,0,0,1,4-2.78,21.82,21.82,0,0,1-5.46-.49c-.78-.22-.83-.23-1.22-.92a.56.56,0,0,1,0-.52c1.26-2,6-2.05,8-2.19a12.87,12.87,0,0,1,4,.39h.06c2.29-9.9,4.22-19.31,4.63-29.54-2.52,6.43-3,13.53-5.92,19.81-3.19,7-9.82,11.1-17.06,13.1-3.87,1.08-7.92,1.35-11.77,2.41-.53.15-2.92.69-2.1,1.85a6.06,6.06,0,0,0,1.53,1.5A8,8,0,0,0,53.57,139c4.73,1,9.67.28,14.4,1.34,2.31.52,4.84,1.59,5.65,4,1.07,3.19-.19,7.5-2.17,10.09-5.46,7.18-16.51,9.19-25,8.15-6.28-.76-11.41-4.66-14.7-9.81-.68,3.17-1.26,6.38-1.76,9.62,9.11,2,18,4.31,27.36,4.23a81.73,81.73,0,0,0,28.32-5.26c-.94-3.74-1-7.73-1.7-11.53C83.65,148.13,83.27,146.4,82.83,144.69Z" transform="translate(0 0)"/><path class="cls-13" d="M36,132.94a106.56,106.56,0,0,1-2-22.18c-1.46,5.42-3,10.83-4,16.36-1,5.31-1.88,11.46-.81,17l3.08-.43A88.69,88.69,0,0,1,36,132.94Z" transform="translate(0 0)"/><path class="cls-13" d="M104.08,112.88c2.09,5.23,3.36,11.5-.94,15.59-1.86,1.76-4.54,3.44-7.08,2-1.22-.69-2.3-1.92-3.5-2.7-1.73,1.29-3.48,2.61-5.31,3.76a13.73,13.73,0,0,1,4.43,9.41l9.07-5.16c2.7-1.54,6.08-2.92,8.4-5C114.37,126.07,108.89,118.56,104.08,112.88Z" transform="translate(0 0)"/><path class="cls-14" d="M75.51,21a137.73,137.73,0,0,1-16,7.59C52.71,31.13,42,33.76,35.43,29.66c-.2-.13-.32.22-.17.34,4.85,4,12.06,3,17.8,1.9,8.13-1.49,16-5.32,23-9.55C76.79,21.92,76.3,20.6,75.51,21Z" transform="translate(0 0)"/><path class="cls-14" d="M82.39,22.27a52.83,52.83,0,0,1-8.93,5.6,36.65,36.65,0,0,1,2.86-6.05c.1-.16-.08-.42-.25-.27a15.26,15.26,0,0,0-4.28,7.37c-.15.52.29,1.16.87.9a47.3,47.3,0,0,0,10.55-6.45C83.85,22.85,83.08,21.73,82.39,22.27Z" transform="translate(0 0)"/><path class="cls-14" d="M61.53,78.42C36.16,81.17,37.9,47.87,38.73,31.54a.29.29,0,1,0-.57-.08C36.24,43,35.59,56.15,40.21,67.12c3.5,8.29,12.3,14.91,21.51,12.52A.62.62,0,0,0,61.53,78.42Z" transform="translate(0 0)"/><path class="cls-14" d="M83.22,22.42a.23.23,0,0,0-.46,0c-1.19,11.19,1,22.39-.61,33.58C80.36,68.48,71.84,78.6,58.74,78.47A.75.75,0,0,0,58.6,80c10.6,2.15,19.32-6.54,23.1-15.51C87.13,51.54,83.89,35.88,83.22,22.42Z" transform="translate(0 0)"/><path class="cls-14" d="M52.42,36.38c-2.3-2.58-7-.65-8.46,1.88-.16.26.09.82.43.6A10.11,10.11,0,0,1,48,37.35c1.43-.31,2.69.35,4.07.21A.74.74,0,0,0,52.42,36.38Z" transform="translate(0 0)"/><path class="cls-14" d="M78.81,36.91A5.54,5.54,0,0,0,75,34c-1.49-.4-3.81.12-4.58,1.54-.21.38-.1,1.16.48,1.15,1.17,0,2.24-.55,3.44-.55a7.58,7.58,0,0,1,4,1.27C78.66,37.65,79,37.17,78.81,36.91Z" transform="translate(0 0)"/><path class="cls-14" d="M50.86,44.24a1.27,1.27,0,0,0-1.3-.46,1.56,1.56,0,0,0-1.13,1.14,2,2,0,0,0,1.24,2.56,1.33,1.33,0,0,0,1.37-.9.28.28,0,0,1,0-.09A2.81,2.81,0,0,0,50.86,44.24Z" transform="translate(0 0)"/><path class="cls-14" d="M72.81,43.43a1,1,0,0,0-1.35-.56s-.06,0-.09.06l-.23,0c-1.61.4-1.53,3.35,0,3.81C73.08,47.33,73.43,44.65,72.81,43.43Z" transform="translate(0 0)"/><path class="cls-14" d="M59.33,58.11a9.06,9.06,0,0,1-1.8-.73c-1.26-.93.22-1.75.75-2.38a2.21,2.21,0,0,0,.28-2.52c-.08-.16-.36-.16-.36.06C58.26,54,57.11,54,56.41,55A2.45,2.45,0,0,0,56,56.88a2.91,2.91,0,0,0,3.28,2.23A.54.54,0,0,0,59.33,58.11Z" transform="translate(0 0)"/><path class="cls-14" d="M69.18,63.69c-5.61.26-11.16.62-16.73,1.36-.25,0-.23.48,0,.48,5.66.17,11.28,0,16.94-.39C70.28,65.09,70,63.65,69.18,63.69Z" transform="translate(0 0)"/><path class="cls-14" d="M68.68,63.74c-3.15,5.81-11.58,8.34-15.22,1.43-.08-.13-.29-.13-.29,0-.12,3.62,3.91,5.31,7,5.61,4.22.42,7.88-2.61,9.83-6C70.48,63.88,69.2,62.77,68.68,63.74Z" transform="translate(0 0)"/><path class="cls-14" d="M37.71,89.78a15.37,15.37,0,0,0-1.34.94,9.22,9.22,0,0,1-1.1-.88,13.51,13.51,0,0,1-1.91-2.14,12.44,12.44,0,0,1-2.51-7.18c0-.7.92-.58,1,0a16.69,16.69,0,0,0,3,6.67,12.55,12.55,0,0,0,1.72,1.7C37,89.19,37.36,89.48,37.71,89.78Z" transform="translate(0 0)"/><path class="cls-14" d="M87.88,11.89C83.11,1.23,70.94-1.13,60.4.44,49.52,2.06,39.77,8.9,33.52,17.75,25.65,28.89,24,44.94,23.12,58.14c-.66,9.62-1.33,26.29,9.29,31.08.36.16.68-.21.62-.56-.26-1.68-.53-3.37-.8-5.06,0-.26-.37-.2-.35.06L32,87.09A3,3,0,0,1,29,85c-1.9-2.36-2.76-5.61-3.38-8.5-1.27-5.92-1.2-12.14-.88-18.15.61-11.43,2.56-23.82,7.08-34.37,4.05-9.45,12.57-16.38,22-20C65-.32,80.53.68,86.44,12.59A.8.8,0,1,0,87.88,11.89Z" transform="translate(0 0)"/><path class="cls-14" d="M87.56,79.53c-.12,3.13-2.44,5.68-5.25,7.1a11.45,11.45,0,0,1-2,.82c-.56-.27-1.12-.51-1.69-.75a10.9,10.9,0,0,0,2.21-.9,11.11,11.11,0,0,0,2.48-1.75c1.54-1.47,2.26-3.16,3.3-5C86.9,78.53,87.58,79,87.56,79.53Z" transform="translate(0 0)"/><path class="cls-14" d="M87,76a.35.35,0,0,0-.68.1c-.06,1.79.2,3.58.2,5.37s-.33,3.62-.48,5.43c-.06.74,1,1.16,1.25.36C88.32,83.87,88.45,79.21,87,76Z" transform="translate(0 0)"/><path class="cls-14" d="M95.18,51.62c2.36-14,4.63-29.44-7-40.07-1.1-1-2.25.93-1.24,1.85,10.31,9.47,9.08,23.66,6.7,36.19a44.9,44.9,0,0,0-.39,16.34c1.48,8.82,1.65,16.25-6.87,21.34-.23.13-.15.64.16.55,5.31-1.68,8.31-5.93,9.42-11.22.74-3.51-.28-7.53-.88-11A40.26,40.26,0,0,1,95.18,51.62Z" transform="translate(0 0)"/><path class="cls-14" d="M38.15,56.7c-4,1.48-6.44-2-6.94-5.45a14,14,0,0,1,.67-5.49c.29-1.69,1.66-2.1,4.11-1.21a9.71,9.71,0,0,1,.93,2,.35.35,0,0,0,.67-.22c-.36-1.72-1.37-5-3.76-4.63C31.08,42,30.5,45,30.05,47.32c-.64,3.35-.5,6.51,1.64,9.3a5.93,5.93,0,0,0,7.12,1.64A.85.85,0,0,0,38.15,56.7Z" transform="translate(0 0)"/><path class="cls-14" d="M92.44,44.68c-1-2.35-2.71-3.84-5.32-3.61-1.8.16-2.79,2.1-2.65,3.67,0,.2.27.17.31,0,1.08-.84,2.16-1.68,3.25-2.51A4.29,4.29,0,0,1,91.3,46a8.26,8.26,0,0,1-.51,4.17c-1.07,3.28-4.18,5-7.37,5.56a1,1,0,0,0,.3,1.86C89.22,56.73,94.9,50.57,92.44,44.68Z" transform="translate(0 0)"/><path class="cls-14" d="M35.7,47.32c-1-.45-2.65-.24-2.69,1.16,0,.11.17.19.2.06.39-1.76,2.17-.39,2.8.34a11.59,11.59,0,0,1,1.41,2.37.34.34,0,0,0,.65-.21A5,5,0,0,0,35.7,47.32Z" transform="translate(0 0)"/><path class="cls-14" d="M86.48,45.69a8.3,8.3,0,0,0-2.84,5.06c0,.29.37.53.54.24.52-.87.86-1.84,1.35-2.73.23-.4.48-.77.74-1.15.11-.17.22-.34.35-.51l.3-.33c.41-.42.8-.3,1.19.35,0,.16.15.27.23.11C88.89,45.58,87.27,45.07,86.48,45.69Z" transform="translate(0 0)"/><path class="cls-14" d="M23.42,147.07c0-.69-.05-1.37-.06-2A177.65,177.65,0,0,1,24,123.76c.66-7.06,1.1-14.52,3.06-21.37a23.16,23.16,0,0,1,8.21-12.55c.44-.34.9-.66,1.36-1,5.21-3.45,11.86-5,19.07-6,1.11-.16,1.4,1.7.29,1.85-6,.84-13,1.66-18.28,5.06a15.37,15.37,0,0,0-1.34.94c-.35.26-.68.55-1,.84-5.11,4.61-6.94,10.83-7.93,17.45-1.76,11.86-2.72,23.89-3.29,35.89,0,.7-.07,1.4-.09,2.1Z" transform="translate(0 0)"/><path class="cls-14" d="M56.82,79.23c-.06-.21-.32-.45-.53-.23a5.74,5.74,0,0,0-1.06,4.3c.1,1.11,1.89,1.13,1.87,0A17.08,17.08,0,0,0,56.82,79.23Z" transform="translate(0 0)"/><path class="cls-14" d="M68.88,82.71a36.06,36.06,0,0,1-1-5.64.23.23,0,0,0-.45-.06,12.71,12.71,0,0,0-.18,6.22C67.48,84.58,69.29,84,68.88,82.71Z" transform="translate(0 0)"/><path class="cls-14" d="M35.27,101.66c0-.52-.71-.67-.77-.11A106.17,106.17,0,0,0,36,133.27a1,1,0,1,0,2-.31A171.92,171.92,0,0,1,35.27,101.66Z" transform="translate(0 0)"/><path class="cls-14" d="M37.83,133.48a92.64,92.64,0,0,0-3.67,10c-.22.74-.44,1.48-.64,2.22a138.89,138.89,0,0,0-3.62,17.48c0,.23-.31.17-.32-.05a67.37,67.37,0,0,1,2-17.13c.18-.76.38-1.51.59-2.26a88.57,88.57,0,0,1,3.86-11A1,1,0,1,1,37.83,133.48Z" transform="translate(0 0)"/><path class="cls-14" d="M83.15,129.31c-.17.46-.3.91-.49,1.35-.5-.19-1.49-.37-1.49-.53h0a5.85,5.85,0,0,1,.27-1.36c2.32-10,4.27-19.49,4.65-29.85a.28.28,0,0,1,.55,0C87.68,108.81,86.87,119.91,83.15,129.31Z" transform="translate(0 0)"/><path class="cls-14" d="M82.19,139.87l.63,1.55c-.31-.09-.62-.16-.94-.22-.15-.48-.29-1-.44-1.44Z" transform="translate(0 0)"/><path class="cls-14" d="M87,161.7c-.1.81-1,.71-1.23,0-1-3.82-1-7.92-1.77-11.83-.34-1.75-.72-3.48-1.16-5.19-.13-.52-.26-1-.4-1.54l1.19.37q.3.76.57,1.53C86.13,150.49,87.61,156.39,87,161.7Z" transform="translate(0 0)"/><path class="cls-14" d="M86.19,161.23a81.61,81.61,0,0,1-28.82,5.44c-9.51.08-18.46-2.3-27.67-4.3-.26-.05-.28.34-.09.44,17.14,8.9,39.85,6.82,57.37.26C88.09,162.65,87.34,160.78,86.19,161.23Z" transform="translate(0 0)"/><path class="cls-14" d="M67.61,83.16c-1.21,7.52-10.69,7.2-13.33.86a.29.29,0,0,0-.54.18,7.8,7.8,0,0,0,7.77,6.38c4,0,7-3.53,7.68-7.2A.8.8,0,1,0,67.61,83.16Z" transform="translate(0 0)"/><path class="cls-14" d="M112.34,130c-5.12,6-14.13,9.44-20.86,13.36-1.09.63-1.87-1.29-.81-1.89l10.08-5.74c2.7-1.54,6.08-2.92,8.4-5,7-6.32-5.34-17.75-9.36-22.93-4.33-5.57-8.45-12.44-14-16.93a26.46,26.46,0,0,0-5.55-3.46c-.56-.27-1.12-.51-1.69-.75a73.94,73.94,0,0,0-10.46-3c-.29-.07-.38-.62,0-.63A25.55,25.55,0,0,1,80.79,85.8c.51.26,1,.53,1.52.83C92.2,92.37,99,103.9,106,112.92,109.13,117,117.21,124.31,112.34,130Z" transform="translate(0 0)"/><path class="cls-14" d="M99.62,121.09c-2.23.66-4.14,2.39-6,3.75a42.55,42.55,0,0,0-7.29,6.37c-.22.26,0,.88.37.65,2.23-1.33,4.32-3,6.41-4.51s5.15-3.08,7-5.2C100.36,121.82,100.24,120.9,99.62,121.09Z" transform="translate(0 0)"/><path class="cls-14" d="M97,123.06c-.81-2.51-3.25-4.69-4.93-6.69s-3.56-4.16-5.48-6.11c-.35-.34-.68.26-.48.57,1.62,2.59,3.44,5.06,5.26,7.51,1.43,1.93,2.79,4.36,4.88,5.59C96.81,124.25,97.13,123.47,97,123.06Z" transform="translate(0 0)"/><path class="cls-14" d="M81.57,132.26c-3.31-1.55-7.27.7-9.61,3a3.33,3.33,0,0,0-1.2,3.11,1.5,1.5,0,0,0,1.89,1.13.22.22,0,0,0,0-.42c-2.58-.57,0-2.89.47-3.33a12.66,12.66,0,0,1,2.47-1.68c1.91-1,3.72-.85,5.79-.86A.5.5,0,0,0,81.57,132.26Z" transform="translate(0 0)"/><path class="cls-14" d="M82.55,136.1a6.22,6.22,0,0,0-4.51.17A19.82,19.82,0,0,0,72.48,139c-2.19,1.74.51,3.84,2.4,3.51.38-.07.29-.6,0-.68l-.49-.13c-1.33,0-1.47-.78-.4-2.31.59-.34,1.26-.57,1.88-.85,2-.9,4.07-2.09,6.33-1.34C82.87,137.43,83.19,136.34,82.55,136.1Z" transform="translate(0 0)"/><path class="cls-14" d="M90.52,141.34c-1.41,2.06-3.56,4.41-6.33,3.71L84,145c-.41-.12-.81-.23-1.21-.32a11.46,11.46,0,0,0-6.07,0,2.57,2.57,0,0,1-2.61-.3c-1.61-1.06.9-3.18,1.73-3.57a10.47,10.47,0,0,1,5.56-1,6.46,6.46,0,0,1,.75.11,11,11,0,0,1,2.15.6c.77.31.38,1.65-.45,1.32-.35-.14-.7-.26-1.07-.37s-.62-.16-.94-.22a7.55,7.55,0,0,0-5.47.84c-1,1.28-1,1.67.12,1.16l1-.26a10.46,10.46,0,0,1,2-.2,9.13,9.13,0,0,1,2.92.21,4.08,4.08,0,0,0,1.19.17h0c3,1,4.51-.57,6.35-2.53C90.3,140.26,90.74,141,90.52,141.34Z" transform="translate(0 0)"/><path class="cls-14" d="M86,132.32a21.67,21.67,0,0,0-3.38-1.66c-.5-.19-1-.37-1.54-.53a14.63,14.63,0,0,0-6.66-.56,14.32,14.32,0,0,0-3,.74l-.81.56,2.45.27c1.63.18,3.26.35,4.88.64a.36.36,0,0,1-.06.72c-2.26,0-5.19.11-7.37-.5-.78-.22-.83-.23-1.22-.92a.56.56,0,0,1,0-.52c1.26-2,6-2.05,8-2.19a12.87,12.87,0,0,1,4,.39,18.12,18.12,0,0,1,1.77.55,21.89,21.89,0,0,1,3.62,1.82A.71.71,0,0,1,86,132.32Z" transform="translate(0 0)"/><path class="cls-14" d="M87.08,131.35c-.33-.27-.71.16-.55.5.64,1.35,1.45,2.61,2.1,4a17.37,17.37,0,0,1,1.16,3.29,14.28,14.28,0,0,1,.22,1.46,1.52,1.52,0,0,0-.07,1,.86.86,0,0,0-.69.95,1.14,1.14,0,0,0,1.18,1.14c1.2-.18,1.25-1.34,1.27-2.34A13.68,13.68,0,0,0,87.08,131.35Z" transform="translate(0 0)"/><path class="cls-14" d="M71.42,83.61a12,12,0,0,1-9,8.62,8.91,8.91,0,0,1-10.71-7.51.1.1,0,1,0-.2,0c.32,4.9,4.64,8.26,9.35,8.47,5.56.25,9.85-4.3,11.38-9.24C72.45,83.41,71.61,83,71.42,83.61Z" transform="translate(0 0)"/><path class="cls-14" d="M38.31,285.44c-.31-.07-.62-.14-.92-.23-.06-.33-.11-.65-.15-1-2.88-19.74-3.71-39.9-5.4-59.76s-4.95-40.6-1.71-60.53a1.18,1.18,0,1,1,2.34.31c-3.31,20.31.07,41.5,1.66,61.86,1.5,19.34,3.84,38.81,4.17,58.23C38.31,284.7,38.32,285.07,38.31,285.44Z" transform="translate(0 0)"/><path class="cls-14" d="M85.46,194.1q-.25,14.91-.75,29.82c-.66,19.35-.68,39.17-3.32,58.4-.1.7-.2,1.41-.31,2.11l-.75.18,0-2C80.12,263,82,243.23,82.57,223.63q.41-14.91.59-29.83c.1-9.87-.58-20,.25-29.82a1.06,1.06,0,0,1,2.11,0C86.42,173.87,85.64,184.16,85.46,194.1Z" transform="translate(0 0)"/><path class="cls-14" d="M53.44,282c0,.63,0,1.25,0,1.87l-.59.27c0-.63-.11-1.26-.16-1.89C50,248.73,50.21,215,51.8,181.47c.07-1.51,2.24-1.17,2.17.29C52.36,215.17,52.75,248.56,53.44,282Z" transform="translate(0 0)"/><path class="cls-14" d="M62.15,179.24c-4.11-1.51-9.83.65-13.52,2.55-.28.14-.16.66.17.6,2.19-.41,4.39-.71,6.59-1s4.71-.07,6.81-.82C62.76,180.38,62.66,179.43,62.15,179.24Z" transform="translate(0 0)"/><path class="cls-14" d="M66.07,282.2c0,.33,0,.67,0,1l-.94-.31c0-.31,0-.61,0-.92-.59-33.89-1.66-67.66-5.22-101.4-.17-1.66,2.25-2,2.42-.38C65.66,214,67.61,248.22,66.07,282.2Z" transform="translate(0 0)"/><path class="cls-14" d="M53.48,283.85l-.59.27a24.34,24.34,0,0,1-14.58,1.32c-.31-.07-.62-.14-.92-.23-.06-.33-.11-.65-.15-1l1.06.11a28.21,28.21,0,0,0,7.4,0,39.05,39.05,0,0,0,7-2.07l.71-.25C53.45,282.61,53.46,283.23,53.48,283.85Z" transform="translate(0 0)"/><path class="cls-14" d="M81.39,282.32c-.1.7-.2,1.41-.31,2.11l-.75.18c-4.61,1-9.79,0-14.3-1.41l-.94-.31c0-.31,0-.61,0-.92l1,.23a39.42,39.42,0,0,0,8.22,1.08,26,26,0,0,0,6-.71Z" transform="translate(0 0)"/><path class="cls-14" d="M38.91,285.25c-5.74.2-10.65,2-15.68,4.7-3.35,1.81-7.11,3.79-6.36,8.16.12.7,1.19.76,1.21,0C18.25,291,33.46,286.59,39,285.5,39.09,285.47,39.05,285.25,38.91,285.25Z" transform="translate(0 0)"/><path class="cls-14" d="M51.85,284.2a.29.29,0,0,0-.54.18,48.4,48.4,0,0,1,.93,5.49c.17,1.87-.25,3.71-.07,5.56a.4.4,0,0,0,.78.11C54.26,292.27,53.28,287.31,51.85,284.2Z" transform="translate(0 0)"/><path class="cls-14" d="M52,294.78c-4.3,3.27-12.16,3.14-17.31,3.56-5.69.45-11.74.74-17.32-.67-.38-.1-.46.55-.14.69,5.52,2.33,11.84,1.86,17.7,1.53,5.59-.3,13.4-.28,18.06-3.8C53.82,295.5,52.88,294.13,52,294.78Z" transform="translate(0 0)"/><path class="cls-14" d="M51.69,287.78c-5,1.77-9.52.33-13.49-2.89-.22-.18-.44.15-.29.34,3.4,4.26,9.1,5.35,14.14,3.79C52.88,288.77,52.53,287.48,51.69,287.78Z" transform="translate(0 0)"/><path class="cls-14" d="M53.06,292.21a73.23,73.23,0,0,1-15.8,3.72c-4.51.59-15.18,2.94-18.42-1.22-.16-.21-.41.06-.27.25,2.66,3.62,9.47,2.31,13.34,2.12a77.35,77.35,0,0,0,21.54-3.94C54,293,53.64,292,53.06,292.21Z" transform="translate(0 0)"/><path class="cls-14" d="M68.33,283.11A30.4,30.4,0,0,0,65.88,294c0,.87,1.25,1.08,1.27.17a56.14,56.14,0,0,1,1.49-10.95C68.69,283,68.43,282.88,68.33,283.11Z" transform="translate(0 0)"/><path class="cls-14" d="M99.4,290.59a58.12,58.12,0,0,0-18.53-6.86c-.32-.05-.35.43-.11.56,2.93,1.52,24,7.43,21.24,13-.35.7.61,1.6,1,.82C104.84,294.63,102.29,292.25,99.4,290.59Z" transform="translate(0 0)"/><path class="cls-14" d="M102.44,297.39c-12.36,2.88-24.25,2.61-35.74-3.28-1-.5-1.46,1.15-.56,1.6,11.15,5.6,24.78,7.23,36.46,2.26C102.88,297.85,102.75,297.31,102.44,297.39Z" transform="translate(0 0)"/><path class="cls-14" d="M101.59,294.13c-4.84,3.43-11.78,2.86-17.42,2.78a33.17,33.17,0,0,1-17.53-4.76.16.16,0,0,0-.17.27c5.32,3.72,11.24,4.87,17.64,5.17,5.87.28,12.84.62,18-2.64C102.59,294.61,102.14,293.74,101.59,294.13Z" transform="translate(0 0)"/><path class="cls-14" d="M81,283.16c-4.18,2.55-8.44,3-13.2,2.38-.86-.11-.89,1.19-.12,1.38,4.75,1.15,9.78-.36,13.66-3.17C81.57,283.55,81.27,283,81,283.16Z" transform="translate(0 0)"/><path class="cls-14" d="M8.29,172.06C7.34,164.18,6.4,156.3,5,148.48c0-.1-.14-.08-.13,0,.34,7.29,1.06,14.55,1.8,21.81.81,7.83,1.21,15.94,2.81,23.66.13.59,1.07.68,1,0C10.41,186.67,9.16,179.3,8.29,172.06Z" transform="translate(0 0)"/><path class="cls-14" d="M9.12,147.85c0-.23-.41-.27-.4,0,.44,15.09,3.17,30.87,6.44,45.59a.68.68,0,1,0,1.34-.21C14.05,178.16,12.08,162.81,9.12,147.85Z" transform="translate(0 0)"/><path class="cls-14" d="M16.09,192.87c-1,.21-1.69,1-2.74,1.24a11.29,11.29,0,0,1-3.48-.17c-.14,0-.17.14-.12.24a3.73,3.73,0,0,0,3.5,1.53c1.19,0,3.15-.72,3.49-2C16.85,193.35,16.59,192.77,16.09,192.87Z" transform="translate(0 0)"/><path class="cls-14" d="M9.16,147.85a.5.5,0,0,0-.2-.27.59.59,0,0,0-.75,0,4,4,0,0,1-3.31.48c-.26-.06-.29.32-.15.45a3.48,3.48,0,0,0,4.12.22A.71.71,0,0,0,9.16,147.85Z" transform="translate(0 0)"/><path class="cls-14" d="M34.16,143.45c-.22.74-.44,1.48-.64,2.22l-1.92.3q-3.77.57-7.55,1l-.63.08c-4.88.58-9.75,1-14.54,1.34-.52,0-.66-.79-.14-.88,4.83-.89,9.71-1.74,14.62-2.51l.78-.12c2.68-.43,5.37-.82,8-1.19Z" transform="translate(0 0)"/><path class="cls-14" d="M4.83,148a4.81,4.81,0,0,1-2,1.45,9.42,9.42,0,0,1-2.24.35.42.42,0,0,0-.06.78c1.78.68,3.81-.79,4.56-2.34C5.2,148.06,5,147.82,4.83,148Z" transform="translate(0 0)"/><path class="cls-14" d="M.73,150.2c-.06-.54-.75-.4-.73.11.57,14.27,1.06,29,3.07,43.15.1.67,1.15.71,1.14,0C4.07,179.12,2.33,164.43.73,150.2Z" transform="translate(0 0)"/><path class="cls-14" d="M9.66,193.77a3.92,3.92,0,0,0-1.62.38,4.3,4.3,0,0,1-2.41-.08c-1.07-.32-1.66-1-2.69-.33,0,0,0,.07,0,.06.74-.19,1.54,1,2.12,1.41a4.3,4.3,0,0,0,1.82.59c1.13.17,2.72-.16,3.16-1.3A.56.56,0,0,0,9.66,193.77Z" transform="translate(0 0)"/><path class="cls-14" d="M11.43,195.17A2.58,2.58,0,0,0,10,195.1a16.22,16.22,0,0,0-2,.28.23.23,0,0,0,0,.45,16.69,16.69,0,0,0,1.73.22,3.15,3.15,0,0,0,1.7-.09A.45.45,0,0,0,11.43,195.17Z" transform="translate(0 0)"/><path class="cls-14" d="M10.73,195.35a.52.52,0,0,0,.06-.83,2,2,0,0,0-1.32-.39.55.55,0,0,0-.6.51.36.36,0,0,0,.15.59h.06a.5.5,0,0,0,.29.14c.17,0,.36.07.55.09l.33.05h0a.46.46,0,0,0,.34-.12Z" transform="translate(0 0)"/><path class="cls-14" d="M13.75,194.94a10.32,10.32,0,0,0-3.17.47c-.19.07-.12.4.07.43a10.09,10.09,0,0,0,3.19-.3C14.2,195.47,14.1,194.92,13.75,194.94Z" transform="translate(0 0)"/><path class="cls-14" d="M22.57,193.08c-.78,1.07-2.07,4-3.67,3.9-1.25-.09-2.19-1.93-3.38-2.41-.36-.15-.59.4-.29.6,1.54,1,2.32,3.46,4.56,3,.72-.15,1.24-.91,1.69-1.44a8.33,8.33,0,0,0,1.85-3.19C23.45,193.08,22.91,192.62,22.57,193.08Z" transform="translate(0 0)"/><path class="cls-14" d="M22.32,188.22c-2.65-.53-3.94,2.7-4.75,4.87a3.21,3.21,0,0,0-1.72.4.84.84,0,0,0,.45,1.56A8.31,8.31,0,0,1,18,194.9a.82.82,0,0,0,.85-.55,24.28,24.28,0,0,1,1.71-4.08c.45-1,1.2-1,2.25,0a3.36,3.36,0,0,1,0,1.14,10.93,10.93,0,0,0-.23,2.13.22.22,0,0,0,.43.06C23.53,192.26,24.7,188.7,22.32,188.22Z" transform="translate(0 0)"/><path class="cls-14" d="M25.33,187.61a1.8,1.8,0,0,0-2.46,1.87.63.63,0,0,0,1,.43c2.36-2.28,2,2.51,1.87,3.76-.05.41-.11.81-.18,1.22-.21,1.26-1.67,1-2.45,1a12.64,12.64,0,0,0-2.38.16c-.35.07-.28.57,0,.65a18.32,18.32,0,0,0,3.38.38c.6,0,1.42.18,1.93-.27a3.08,3.08,0,0,0,.68-1.78,22.54,22.54,0,0,0,.51-4.1A3.27,3.27,0,0,0,25.33,187.61Z" transform="translate(0 0)"/><path class="cls-14" d="M29.37,194.66c-.47-.13-.9.29-1.35.42a6.58,6.58,0,0,1-1.66.23c-.41,0-.36.65-.06.79a3.16,3.16,0,0,0,1.92.22c.66-.12,1.42-.39,1.55-1.1A.51.51,0,0,0,29.37,194.66Z" transform="translate(0 0)"/><path class="cls-14" d="M29.62,187.08c-1.37-.34-3.44.93-3.32,2.46a.28.28,0,0,0,.44.19A6.83,6.83,0,0,1,28,188.8a2.76,2.76,0,0,1,1.53-.14C30.47,188.74,30.5,187.29,29.62,187.08Z" transform="translate(0 0)"/><path class="cls-14" d="M80.55,107.88a6.71,6.71,0,0,0-10-2.7,5.37,5.37,0,0,0-3.29,5.55c.56,4.15,4,6.16,8,5.59C79,115.79,82.24,111.62,80.55,107.88Zm-.81,3.66c-.52,2.17-2.65,3.28-4.61,3.76a5.55,5.55,0,0,1-6.84-4,4.84,4.84,0,0,1,2.48-5.32c2.77-.18,4.92-1.43,7.48.53A4.88,4.88,0,0,1,79.74,111.54Z" transform="translate(0 0)"/><path class="cls-14" d="M72.25,108.47a.58.58,0,0,0-.1-.12l-.07,0s0,0,0,0l-.11-.08a.39.39,0,0,0-.54.35v.21a.94.94,0,0,0,0,.78.39.39,0,0,0,.5.22A.84.84,0,0,0,72.25,108.47Z" transform="translate(0 0)"/><path class="cls-14" d="M76.09,108.38c-.84-.56-1.21.75-.77,1.31l.06,0a.38.38,0,0,0,.23.15C76.52,110.05,76.78,108.84,76.09,108.38Z" transform="translate(0 0)"/><path class="cls-14" d="M76.7,111.84A9,9,0,0,1,73.93,113a4.61,4.61,0,0,1-3.37-1.23c-.13-.12-.25.1-.17.21a4.13,4.13,0,0,0,3.17,2,3.71,3.71,0,0,0,3.5-1.62C77.18,112.09,77,111.7,76.7,111.84Z" transform="translate(0 0)"/></g></g></svg>